<?xml version="1.0" encoding="UTF-8" standalone="no"?>
<!DOCTYPE svg PUBLIC "-//W3C//DTD SVG 1.1//EN" "http://www.w3.org/Graphics/SVG/1.1/DTD/svg11.dtd">
<svg width="100%" height="100%" viewBox="0 0 3000 2000" version="1.1" xmlns="http://www.w3.org/2000/svg" xmlns:xlink="http://www.w3.org/1999/xlink" xml:space="preserve" xmlns:serif="http://www.serif.com/" style="fill-rule:evenodd;clip-rule:evenodd;stroke-linejoin:round;stroke-miterlimit:2;">
    <g>
        <g>
            <path d="M471.509,1718.79C471.509,1718.79 110.006,1334.61 363.494,976.236C458.082,842.511 699.562,767.418 921.542,828.338C1052.66,864.322 1251.51,859.013 1445.81,541.835C1710.78,109.292 2810.71,305.971 2596.01,1063.81C2505.57,1383.03 2842.65,1397.56 2675.68,1719.48L471.509,1718.79Z" style="fill:rgb(235,243,250);fill-rule:nonzero;"/>
            <g>
                <g>
                    <path d="M2428.62,949.173L1641.19,1607.92L1226.9,1254.99C1149.36,1323.27 1029.6,1428.67 909.122,1534.43C826.79,1606.71 760.133,1665.11 706.105,1712.38L329.811,1711.94C434.161,1623.1 854.315,1253.88 1137.37,1004.37L1223.92,928.076L1642.72,1284.85L2257.43,770.588L2428.62,949.173Z" style="fill:rgb(213,229,251);fill-rule:nonzero;"/>
                </g>
                <path d="M2157.75,689.575L2532.77,1065.74L2638.71,636.024L2157.75,689.575Z" style="fill:rgb(213,229,251);fill-rule:nonzero;"/>
            </g>
            <g>
                <g>
                    <g>
                        <path d="M928.361,1482.18C926.961,1447.74 923.942,1417.78 920.328,1396.88C914.568,1363.57 909.382,1344.41 909.322,1344.2C908.563,1341.28 897.602,1329.42 873.23,1329.79C848.859,1330.15 851.17,1345.7 851.17,1345.7C851.168,1346.22 851.237,1346.71 851.344,1347.08C851.579,1347.88 873.951,1429 872.982,1533.73C872.968,1535.2 872.803,1537.74 872.908,1539.43C872.908,1539.44 929.385,1540.89 929.399,1539.43C931.37,1530.28 930.409,1504.92 928.361,1482.18Z" style="fill:rgb(183,211,243);fill-rule:nonzero;"/>
                        <path d="M935.462,1533.21C935.445,1534.67 934.675,1535.84 933.735,1535.84L933.713,1535.84C932.774,1535.82 932.026,1534.65 932.015,1533.21L883.614,1533.21C883.597,1534.67 882.826,1535.84 881.887,1535.84L881.864,1535.84C880.908,1535.82 880.149,1534.61 880.16,1533.14C880.441,1503.16 878.732,1475.16 876.144,1450.45C869.71,1388.83 857.815,1347.65 857.646,1347.08C857.539,1346.71 857.472,1346.23 857.472,1345.7C857.472,1345.7 855.16,1330.16 879.53,1329.79C903.905,1329.42 914.866,1341.28 915.626,1344.21C915.671,1344.36 918.607,1355.21 922.51,1374.72C923.803,1381.18 925.198,1388.59 926.632,1396.88C930.242,1417.77 933.263,1447.74 934.663,1482.18C936.711,1504.92 937.431,1524.06 935.462,1533.21Z" style="fill:rgb(210,227,252);fill-rule:nonzero;"/>
                        <path d="M876.584,1535.84L1066.34,1535.84C1066.34,1535.84 1061.92,1517.96 952.027,1520.62C874.256,1522.51 876.584,1535.84 876.584,1535.84Z" style="fill:rgb(197,220,248);fill-rule:nonzero;"/>
                        <g>
                            <path d="M861.139,1722.63C883.14,1611.25 877.483,1542.9 877.455,1542.04C877.399,1540.32 880.56,1538.77 882.26,1538.71C883.981,1538.68 891.575,1538.2 892.454,1539.67C893.605,1541.59 898.035,1625.8 865.245,1722.63L861.139,1722.63Z" style="fill:rgb(183,211,243);fill-rule:nonzero;"/>
                        </g>
                        <g>
                            <path d="M1038.31,1722.63C1016.31,1611.25 1021.97,1542.9 1022,1542.04C1022.05,1540.32 1018.89,1538.77 1017.19,1538.71C1015.47,1538.68 1007.88,1538.2 1007,1539.67C1005.85,1541.59 1001.42,1625.8 1034.21,1722.63L1038.31,1722.63Z" style="fill:rgb(183,211,243);fill-rule:nonzero;"/>
                        </g>
                        <g>
                            <path d="M1073.42,1722.63C1051.42,1611.25 1057.08,1542.9 1057.11,1542.04C1057.16,1540.32 1054,1538.77 1052.3,1538.71C1050.58,1538.68 1042.99,1538.2 1042.11,1539.67C1040.96,1541.59 1036.53,1625.8 1069.32,1722.63L1073.42,1722.63Z" style="fill:rgb(183,211,243);fill-rule:nonzero;"/>
                        </g>
                        <g>
                            <path d="M896.487,1722.63C918.489,1611.25 912.831,1542.9 912.803,1542.04C912.748,1540.32 915.909,1538.77 917.608,1538.71C919.33,1538.68 926.924,1538.2 927.802,1539.67C928.953,1541.59 933.384,1625.8 900.593,1722.63L896.487,1722.63Z" style="fill:rgb(183,211,243);fill-rule:nonzero;"/>
                        </g>
                        <path d="M1066.45,1541.55L876.696,1541.55C874.558,1541.55 872.809,1539.8 872.809,1537.66L872.809,1535.11C872.809,1532.97 874.558,1531.22 876.696,1531.22L1066.45,1531.22C1068.59,1531.22 1070.34,1532.97 1070.34,1535.11L1070.34,1537.66C1070.34,1539.8 1068.59,1541.55 1066.45,1541.55Z" style="fill:rgb(183,211,243);fill-rule:nonzero;"/>
                        <g>
                            <path d="M1059.79,1370.18L1122.87,1356.52L1126.58,1365.57C1126.58,1365.57 1056.98,1406.99 1050.46,1404.96C1043.94,1402.93 1059.79,1370.18 1059.79,1370.18Z" style="fill:rgb(255,178,125);fill-rule:nonzero;"/>
                            <path d="M1002.44,1655.45C1000.86,1657.27 1000.66,1659.29 1001.44,1661.45C1001.44,1661.46 1001.45,1661.47 1001.46,1661.48C1002.9,1665.47 1007.68,1669.94 1013.23,1674.39C1013.94,1674.96 1014.57,1675.49 1015.12,1675.97C1015.26,1676.09 1015.41,1676.22 1015.54,1676.35C1015.65,1676.45 1015.76,1676.55 1015.87,1676.64C1021.04,1681.41 1019.1,1682.5 1028.39,1692.18C1038.99,1703.21 1046.29,1703.41 1048.37,1702.41C1050.12,1701.55 1046.55,1695.7 1042.6,1689.13C1042.41,1688.81 1042.22,1688.49 1042.02,1688.17C1041.5,1687.29 1040.97,1686.41 1040.45,1685.53C1035.82,1677.62 1037.01,1673.9 1038.11,1662.13C1039,1652.56 1052.99,1608.67 1052.99,1608.67L1032.68,1605.17C1032.68,1605.17 1026.56,1640.12 1019.82,1645.5C1016.22,1648.37 1012.18,1648.41 1008.72,1650.53C1008.48,1650.68 1008.24,1650.83 1008,1650.99C1006.03,1652.29 1004.03,1653.64 1002.44,1655.45Z" style="fill:rgb(255,178,125);fill-rule:nonzero;"/>
                            <path d="M1002.44,1655.45C1000.86,1657.27 1000.66,1659.29 1001.44,1661.45C1001.44,1661.46 1001.45,1661.47 1001.46,1661.48C1003.23,1665.47 1007.88,1669.91 1013.25,1674.35C1013.95,1674.93 1014.57,1675.47 1015.12,1675.97C1015.26,1676.09 1015.41,1676.22 1015.54,1676.35C1015.65,1676.45 1015.76,1676.55 1015.87,1676.64C1021.04,1681.41 1019.1,1682.5 1028.39,1692.18C1038.99,1703.21 1046.29,1703.41 1048.37,1702.41C1050.12,1701.55 1046.55,1695.7 1042.6,1689.13C1040.54,1688.37 1030.95,1684.48 1023.71,1675.2C1017.32,1667.06 1013.07,1656.6 1008.72,1650.53C1008.48,1650.68 1008.24,1650.83 1008,1650.99C1006.03,1652.29 1004.03,1653.64 1002.44,1655.45Z" style="fill:rgb(28,70,138);fill-rule:nonzero;"/>
                            <path d="M1166.23,1642.77C1167.48,1649.04 1176.42,1647.99 1186.41,1645.55C1196.39,1643.11 1194.02,1646.01 1208.23,1644.44C1222.44,1642.87 1226.75,1637.57 1227.18,1635.46C1227.57,1633.58 1220.55,1632.92 1213.01,1632.05C1212.07,1631.95 1211.11,1631.83 1210.16,1631.71C1201.66,1630.65 1195.43,1625.16 1187.71,1620.65C1180.39,1616.38 1169.47,1598.99 1169.47,1598.99L1149.98,1600.54C1149.98,1600.54 1160.21,1616.07 1164.17,1622.82C1166.49,1626.79 1166.37,1632.05 1166.08,1636.1C1165.93,1638.31 1165.79,1640.56 1166.23,1642.77Z" style="fill:rgb(255,178,125);fill-rule:nonzero;"/>
                            <path d="M1186.41,1645.55C1196.39,1643.11 1194.02,1646.01 1208.23,1644.44C1222.44,1642.87 1226.75,1637.57 1227.18,1635.46C1227.57,1633.58 1220.55,1632.92 1213.01,1632.05L1212.94,1632.2C1212.94,1632.2 1204.42,1638.24 1192.59,1638.52C1182.95,1638.76 1172.74,1636 1166.08,1636.1C1165.93,1638.31 1165.79,1640.56 1166.23,1642.77C1167.49,1649.04 1176.42,1647.99 1186.41,1645.55Z" style="fill:rgb(28,70,138);fill-rule:nonzero;"/>
                            <path d="M1122.87,1356.52C1122.87,1356.52 1127.51,1345.14 1132.62,1344.68C1137.72,1344.21 1153.98,1341.66 1155.14,1343.98C1156.3,1346.3 1155.14,1354.66 1151.65,1357.68C1148.17,1360.7 1126.58,1365.57 1126.58,1365.57L1122.87,1356.52Z" style="fill:rgb(255,178,125);fill-rule:nonzero;"/>
                            <path d="M1091.54,1518.15L1049.54,1631.19C1049.54,1631.19 1043.09,1631.81 1036.9,1630.03C1031.21,1628.39 1024.68,1624.08 1024.68,1624.08C1024.68,1624.08 1035.1,1515.54 1054.21,1492.97C1073.31,1470.39 1091.54,1518.15 1091.54,1518.15Z" style="fill:rgb(22,53,96);fill-rule:nonzero;"/>
                            <path d="M925.409,1472.42C925.409,1472.42 1046.1,1431.61 1073.02,1440.29C1099.93,1448.98 1180.75,1609.77 1180.75,1609.77C1180.75,1609.77 1178.93,1612.19 1173.95,1614.06C1169.32,1615.8 1158.11,1615.69 1158.11,1615.69C1158.11,1615.69 1085.17,1553.17 1076.49,1534.94C1067.81,1516.7 1064.34,1499.34 1055.65,1501.07C1046.97,1502.81 943.642,1543.62 920.198,1519.31C896.754,1495 902.885,1463.41 902.885,1463.41L925.409,1472.42Z" style="fill:rgb(28,70,138);fill-rule:nonzero;"/>
                            <path d="M994.217,1184.65C989,1181.68 982.748,1181.36 978.375,1181.62C979.501,1180.46 981.716,1180.03 981.716,1180.03C979.004,1179.63 972.952,1182.32 972.952,1182.32C935.232,1167.79 929.303,1223.33 930.096,1236.23C930.883,1249.13 930.978,1263.98 912.149,1275.56C875.1,1298.33 906.36,1338.08 906.36,1338.08C906.652,1338.25 923.598,1366.99 923.598,1366.99C922.646,1356.56 970.757,1301.54 995.857,1285.06C1001.97,1276.06 1004.14,1260.17 1004.3,1258.92C1003.25,1271.52 1001.09,1278.59 999.164,1282.57C1020.42,1263.01 1008.05,1192.51 994.217,1184.65Z" style="fill:rgb(181,69,60);fill-rule:nonzero;"/>
                            <path d="M994.371,1285.88C994.496,1285.93 982.252,1292.29 973.041,1289.77C964.377,1287.41 958.717,1276.18 958.836,1276.15C962.505,1275.42 963.563,1270.38 963.485,1248.72L965.144,1249.04L993.033,1254.56C993.033,1254.56 992.399,1263.34 992.38,1271.61C992.36,1278.55 992.781,1285.14 994.371,1285.88Z" style="fill:rgb(255,178,125);fill-rule:nonzero;"/>
                            <path d="M993.033,1254.56C993.033,1254.56 992.399,1263.34 992.38,1271.61C976.774,1271.17 968.525,1256.93 965.145,1249.04L993.033,1254.56Z" style="fill:rgb(237,151,93);fill-rule:nonzero;"/>
                            <path d="M962.264,1246.01C962.264,1246.01 954.085,1233.08 952.122,1222.03C950.721,1214.14 954.739,1184.9 984.123,1189.12C984.123,1189.12 992.658,1189.96 1000.68,1195.38C1007.06,1199.68 1016.27,1208.99 1005.97,1234.5L1003.3,1243.12L962.264,1246.01Z" style="fill:rgb(181,69,60);fill-rule:nonzero;"/>
                            <path d="M998.245,1262.39C998.245,1262.39 961.321,1263 961.295,1240C961.27,1217 956.487,1201.59 980.061,1200.23C1003.63,1198.87 1008.23,1207.64 1010.1,1215.32C1011.98,1222.99 1007.85,1261.64 998.245,1262.39Z" style="fill:rgb(255,178,125);fill-rule:nonzero;"/>
                            <path d="M996.878,1199.67C996.878,1199.67 986.768,1226.65 971.253,1230.64C955.738,1234.63 949.008,1230.47 949.008,1230.47C949.008,1230.47 960.909,1221.02 963.379,1204.52C963.378,1204.52 989.252,1186.82 996.878,1199.67Z" style="fill:rgb(181,69,60);fill-rule:nonzero;"/>
                            <path d="M994.373,1201.86C994.373,1201.86 1001.92,1207.88 1003.76,1213.74C1005.61,1219.6 1006.43,1231.65 1009.95,1231.24C1009.95,1231.24 1017.56,1212.9 1009,1202.53C999.926,1191.52 994.373,1201.86 994.373,1201.86Z" style="fill:rgb(181,69,60);fill-rule:nonzero;"/>
                            <path d="M912.149,1385.21C908.508,1369.94 920.896,1340.31 933.828,1315.78C945.562,1293.54 957.742,1275.5 958.836,1276.15C989.783,1294.52 992.58,1279.25 992.58,1279.25L992.581,1279.25C992.593,1279.25 1020.69,1282.98 1028.65,1296.68C1038.53,1313.68 1049.19,1361.19 1059.79,1370.18C1058.16,1375.16 1058.86,1377.81 1060.58,1383.98C1060.95,1385.31 1061.36,1386.56 1061.81,1387.75C1063.41,1392.1 1065.4,1395.62 1067.13,1398.68C1061.74,1401.95 1051.34,1408.17 1043.68,1403.7C1032,1396.86 1022.88,1376.05 1017.75,1367.76C1017.73,1367.73 1017.72,1367.7 1017.7,1367.67C1006.55,1430.78 1021.71,1445.15 1014.03,1451.81C1005.93,1458.83 994.349,1448.46 968.878,1459.5C952.171,1466.75 928.987,1477.23 913.38,1479.05C905.195,1480.01 899.087,1478.59 897.096,1473.06C891.309,1456.99 919.096,1414.33 912.149,1385.21Z" style="fill:rgb(28,70,138);fill-rule:nonzero;"/>
                            <path d="M990.036,1248.45C990.036,1248.45 990.724,1251.37 997.993,1250.92C997.993,1250.92 1004.1,1250.55 1003.91,1247.33C1003.91,1247.33 997.992,1245.05 990.036,1248.45Z" style="fill:white;fill-rule:nonzero;"/>
                            <path d="M897.098,1473.06C899.089,1478.58 905.197,1480.01 913.382,1479.05C924.184,1474.34 970.849,1456.26 970.327,1444.01C969.552,1425.88 961.354,1425.3 967.143,1402.91C971.791,1384.94 928.674,1351.52 921.796,1344.25C908.864,1368.78 908.507,1369.94 912.148,1385.21C919.096,1414.33 891.309,1456.99 897.098,1473.06Z" style="fill:rgb(22,53,96);fill-rule:nonzero;"/>
                            <path d="M891.823,1407.64C900.098,1396.02 908.72,1389.88 914.391,1386.79C913.086,1383.42 949.2,1339.15 949.2,1332.29C949.2,1325.34 958.836,1276.15 958.836,1276.15C958.836,1276.15 928.745,1278.01 918.326,1292.54C905.295,1310.71 878.234,1380.64 891.823,1407.64Z" style="fill:rgb(28,70,138);fill-rule:nonzero;"/>
                            <path d="M914.391,1386.79L974.525,1402.48L968.881,1412.61C968.881,1412.61 895.701,1412.1 891.824,1407.64C887.945,1403.19 914.391,1386.79 914.391,1386.79Z" style="fill:rgb(255,178,125);fill-rule:nonzero;"/>
                            <path d="M1017.75,1367.76C1022.88,1376.05 1032,1396.86 1043.68,1403.7C1051.34,1408.17 1061.74,1401.95 1067.13,1398.67C1065.4,1395.62 1063.41,1392.09 1061.81,1387.75C1057.51,1388.74 1052.27,1389.99 1048.88,1391.01C1042.3,1393 1017.75,1367.76 1017.75,1367.76Z" style="fill:rgb(22,53,96);fill-rule:nonzero;"/>
                            <path d="M974.524,1402.48C974.524,1402.48 993.407,1397.13 997.905,1398.38C1002.4,1399.63 1017.81,1409.84 1015.65,1412.61C1013.48,1415.38 999.904,1410.95 993.657,1411.79C987.41,1412.63 982.578,1415.71 978.08,1415.04C973.582,1414.38 968.879,1412.61 968.879,1412.61L974.524,1402.48Z" style="fill:rgb(255,178,125);fill-rule:nonzero;"/>
                            <path d="M974.524,1402.48C974.524,1402.48 983.763,1397.73 986.391,1395.03C986.723,1394.69 987.284,1394.76 987.539,1395.16C988.243,1396.27 988.902,1398.42 985.661,1400.55C980.997,1403.62 974.524,1402.48 974.524,1402.48Z" style="fill:rgb(255,178,125);fill-rule:nonzero;"/>
                        </g>
                    </g>
                    <g>
                        <path d="M1061.79,1429.05L973.691,1429.05C973.691,1425.17 976.835,1422.02 980.714,1422.02L1061.79,1422.02L1061.79,1429.05Z" style="fill:rgb(237,125,43);fill-rule:nonzero;"/>
                        <path d="M1061.54,1333.1L1197.75,1333.1L1165.08,1429.05L1027.98,1429.05L1061.54,1333.1Z" style="fill:rgb(237,125,43);fill-rule:nonzero;"/>
                        <path d="M1199.76,1333.1L1167.08,1429.04L1029.99,1429.04L1063.55,1333.1L1199.76,1333.1Z" style="fill:rgb(249,151,70);fill-rule:nonzero;"/>
                        <path d="M1126.32,1380.18C1125.47,1383.85 1121.82,1386.82 1118.15,1386.82C1114.48,1386.82 1112.2,1383.85 1113.05,1380.18C1113.89,1376.52 1117.55,1373.55 1121.21,1373.55C1124.88,1373.55 1127.17,1376.52 1126.32,1380.18Z" style="fill:rgb(249,221,191);fill-rule:nonzero;"/>
                        <path d="M1199.76,1333.1L1167.08,1429.04L1076.29,1429.04C1136.43,1408.52 1152.44,1345.93 1155.13,1333.1L1199.76,1333.1Z" style="fill:rgb(237,137,62);fill-rule:nonzero;"/>
                    </g>
                </g>
                <g>
                    <g>
                        <g>
                            <path d="M804.318,1722.63C806.041,1722.63 807.514,1721.42 807.808,1719.77L824.916,1622.8L849.523,1483.34L856.404,1444.34L838.877,1443.84L835.836,1466.48L814.484,1625.57L801.825,1719.87C801.632,1721.33 802.8,1722.63 804.318,1722.63Z" style="fill:rgb(149,192,244);fill-rule:nonzero;"/>
                        </g>
                        <path d="M835.837,1466.48C847.193,1471.49 849.524,1483.34 849.524,1483.34L856.405,1444.34L838.878,1443.84L835.837,1466.48Z" style="fill:rgb(120,172,234);fill-rule:nonzero;"/>
                    </g>
                    <g>
                        <g>
                            <path d="M1240.26,1722.63C1238.54,1722.63 1237.07,1721.42 1236.77,1719.77L1219.67,1622.8L1195.06,1483.34L1188.18,1444.34L1205.7,1443.84L1208.75,1466.48L1230.1,1625.57L1242.76,1719.87C1242.95,1721.33 1241.78,1722.63 1240.26,1722.63Z" style="fill:rgb(149,192,244);fill-rule:nonzero;"/>
                        </g>
                        <path d="M1208.75,1466.48C1197.39,1471.49 1195.06,1483.34 1195.06,1483.34L1188.18,1444.34L1205.7,1443.84L1208.75,1466.48Z" style="fill:rgb(120,172,234);fill-rule:nonzero;"/>
                    </g>
                    <path d="M792.624,1459.65L1241.46,1459.65C1247.34,1459.65 1252.15,1454.84 1252.15,1448.96L1252.15,1439.72C1252.15,1433.84 1247.34,1429.03 1241.46,1429.03L792.624,1429.03C786.744,1429.03 781.934,1433.84 781.934,1439.72L781.934,1448.96C781.934,1454.84 786.745,1459.65 792.624,1459.65Z" style="fill:rgb(120,172,234);fill-rule:nonzero;"/>
                </g>
            </g>
            <path d="M2807.71,1721.7L168.859,1721.7C167.211,1721.7 165.862,1720.36 165.862,1718.71L165.862,1717.68C165.862,1716.04 167.211,1714.69 168.859,1714.69L2807.71,1714.69C2809.36,1714.69 2810.71,1716.04 2810.71,1717.68L2810.71,1718.71C2810.71,1720.36 2809.36,1721.7 2807.71,1721.7Z" style="fill:rgb(46,53,82);fill-rule:nonzero;"/>
            <g>
                <path d="M1907.47,1412.71C1907.47,1412.71 1895.83,1427.15 1899.47,1429.12C1903.11,1431.09 1912.73,1434.77 1914.99,1432.45C1917.26,1430.13 1917.97,1413.11 1917.97,1413.11L1907.47,1412.71Z" style="fill:rgb(255,178,125);fill-rule:nonzero;"/>
                <path d="M1907.94,1412.95C1907.94,1412.95 1903.18,1414.6 1901.31,1417.08C1899.44,1419.55 1895.3,1423.33 1896.31,1424.37C1897.33,1425.42 1903.27,1420.8 1903.27,1420.8L1907.94,1412.95Z" style="fill:rgb(255,178,125);fill-rule:nonzero;"/>
                <path d="M1951.48,1219.88C1951.48,1219.88 1938.36,1342.05 1937.19,1345.53C1936.93,1346.28 1935.91,1350.15 1934.46,1355.71C1932.39,1363.66 1929.47,1375.08 1926.7,1385.94C1922.53,1402.34 1918.7,1417.48 1918.7,1417.48L1907.3,1413.72C1907.3,1413.72 1906.71,1354.35 1909.64,1340.68C1912.58,1327.01 1921.95,1243.01 1926.69,1231.71C1931.41,1220.4 1951.48,1219.88 1951.48,1219.88Z" style="fill:rgb(174,195,255);fill-rule:nonzero;"/>
                <g>
                    <path d="M1924.19,1512.84L1852.62,1494.07C1843.31,1491.62 1837.68,1482 1840.12,1472.69L1848.26,1441.67C1850.7,1432.36 1860.32,1426.73 1869.64,1429.18L1941.21,1447.95C1950.53,1450.39 1956.15,1460.01 1953.71,1469.33L1945.57,1500.34C1943.13,1509.66 1933.51,1515.28 1924.19,1512.84Z" style="fill:rgb(160,46,46);fill-rule:nonzero;"/>
                    <path d="M1857.7,1444.13L1849.47,1475.5C1847.88,1481.58 1849.7,1487.78 1853.74,1492.05C1855.07,1493.47 1856.65,1494.68 1858.44,1495.59C1858.44,1495.59 1858.44,1495.59 1858.45,1495.6L1858.45,1495.6C1859.56,1496.17 1860.75,1496.63 1862.02,1496.96L1933.46,1515.7C1942.81,1518.15 1952.47,1512.51 1954.92,1503.16L1963.15,1471.78C1965.6,1462.43 1959.96,1452.77 1950.61,1450.32L1926.01,1443.87L1927.76,1437.18C1928.58,1434.09 1926.71,1430.91 1923.62,1430.1L1920.93,1429.39L1905.96,1425.47L1902.24,1424.49C1900.75,1424.1 1899.19,1424.32 1897.85,1425.1C1896.51,1425.88 1895.55,1427.14 1895.16,1428.63L1893.41,1435.32L1879.16,1431.58C1878.59,1431.43 1878.03,1431.32 1877.47,1431.23C1877.46,1431.23 1877.46,1431.23 1877.45,1431.23L1877.45,1431.23C1871.72,1430.31 1866.05,1432.34 1862.15,1436.29L1862.15,1436.3C1860.08,1438.41 1858.5,1441.07 1857.7,1444.13ZM1922.49,1442.95L1896.92,1436.24L1898.68,1429.55C1898.98,1428.4 1900.17,1427.7 1901.32,1428.01L1907.74,1429.69L1919.52,1432.78L1922.7,1433.61C1922.92,1433.67 1923.12,1433.76 1923.3,1433.87C1924.08,1434.36 1924.49,1435.32 1924.25,1436.26L1922.49,1442.95Z" style="fill:rgb(188,63,63);fill-rule:nonzero;"/>
                </g>
                <path d="M1914.27,1432.77C1914.27,1432.77 1917.45,1427.42 1916.26,1425.55C1915.07,1423.68 1910.78,1431.1 1910.78,1431.1C1910.78,1431.1 1913.71,1424.73 1912.62,1423.68C1911.52,1422.63 1907.04,1429.95 1907.04,1429.95C1907.04,1429.95 1909.83,1423.77 1908.85,1423.56C1907.87,1423.35 1904.54,1428.76 1904.54,1428.76C1904.54,1428.76 1906.27,1424.12 1904.69,1424.35C1903.11,1424.57 1899.69,1428.8 1899.69,1428.8L1914.27,1432.77Z" style="fill:rgb(255,178,125);fill-rule:nonzero;"/>
                <path d="M1934.46,1355.71C1932.39,1363.66 1929.47,1375.08 1926.7,1385.94C1924.92,1380.92 1922.65,1372.93 1921.22,1361.97C1918.58,1341.76 1926.69,1298.68 1926.69,1298.68L1934.46,1355.71Z" style="fill:rgb(157,176,244);fill-rule:nonzero;"/>
                <path d="M2084.59,1407.68C2084.59,1407.68 2097.28,1417.99 2098.85,1421.21C2100.41,1424.43 2104.36,1436.35 2104.15,1440.19C2103.94,1444.04 2094.43,1431.4 2091.63,1430.38C2088.84,1429.36 2094.55,1435.57 2093.91,1436.9C2093.27,1438.23 2087.31,1433.88 2085.04,1432.46C2082.77,1431.04 2081.18,1421.4 2077.79,1416.15C2074.41,1410.91 2084.59,1407.68 2084.59,1407.68Z" style="fill:rgb(255,178,125);fill-rule:nonzero;"/>
                <path d="M1918.09,1716.32L1981.35,1716.32C1985.88,1713.25 1980.13,1683.19 1980.13,1683.19C1980.13,1683.19 1962.86,1676.64 1959.88,1689.97C1956.89,1703.28 1937.89,1707.51 1927.83,1709.14C1920.95,1710.26 1918.77,1714.04 1918.09,1716.32Z" style="fill:rgb(35,56,98);fill-rule:nonzero;"/>
                <path d="M2011.91,1716.32L2075.18,1716.32C2079.71,1713.25 2073.95,1683.19 2073.95,1683.19C2073.95,1683.19 2056.69,1676.64 2053.7,1689.97C2050.71,1703.28 2031.71,1707.51 2021.66,1709.14C2014.78,1710.26 2012.6,1714.04 2011.91,1716.32Z" style="fill:rgb(35,56,98);fill-rule:nonzero;"/>
                <path d="M1935.11,1409.73C1935.11,1409.73 1937.95,1445.21 1941.29,1487.86C1945.84,1545.79 1958.09,1689.42 1958.09,1689.42C1958.09,1689.42 1966.12,1696.27 1983.91,1692.52C1983.91,1692.52 1999.06,1642.97 2003.58,1586.42C2003.65,1585.49 2003.73,1584.56 2003.79,1583.62C2008.01,1526.05 2014.56,1404.82 2014.56,1404.82L1935.11,1409.73Z" style="fill:rgb(43,71,139);fill-rule:nonzero;"/>
                <path d="M1934.14,1397.47C1934.14,1397.47 1937.95,1445.21 1941.29,1487.86L2003.58,1586.42C2003.65,1585.49 2003.73,1584.56 2003.79,1583.62C2008.01,1526.05 2014.56,1404.82 2014.56,1404.82L1934.14,1397.47Z" style="fill:rgb(35,56,98);fill-rule:nonzero;"/>
                <path d="M1952.29,1397.47C1952.29,1397.47 1997.47,1509.93 2011.91,1552.56C2022.2,1582.92 2051.21,1689.44 2051.21,1689.44C2051.21,1689.44 2063.83,1693.28 2074.43,1685.86C2074.43,1685.86 2085.23,1577.03 2063.42,1546.35C2051.86,1530.07 2060.55,1377.11 2013.65,1375.8C1966.74,1374.49 1952.29,1397.47 1952.29,1397.47Z" style="fill:rgb(43,71,139);fill-rule:nonzero;"/>
                <path d="M2038.38,1407.68C2019.55,1418.31 1938.84,1418.07 1935.11,1409.73C1926.76,1391.11 1924.66,1296.45 1928.6,1267.42C1928.6,1267.42 1930.64,1222.8 1935.11,1224.77C1964.92,1211.07 2013.17,1223.51 2013.17,1223.51C2026.18,1227.34 2025.06,1257.07 2028.69,1298.82C2029.16,1304.2 2029.67,1309.8 2030.25,1315.6C2032.82,1341.38 2036.56,1370.99 2042.24,1402.24C2042.61,1404.29 2041.18,1406.11 2038.38,1407.68Z" style="fill:rgb(174,195,255);fill-rule:nonzero;"/>
                <path d="M1990.87,1218.49C1990.37,1226.47 1979.97,1225.57 1967.45,1222.71C1954.94,1219.86 1959.47,1212.48 1959.47,1212.48C1959.47,1212.48 1959.65,1206.81 1960.44,1200.01C1960.73,1197.54 1961.09,1194.91 1961.57,1192.37C1961.79,1191.12 1962.03,1189.89 1962.31,1188.7C1963.95,1181.68 1987.31,1188.45 1987.15,1190.34C1986.69,1195.44 1990.38,1212.22 1990.87,1218.49Z" style="fill:rgb(255,178,125);fill-rule:nonzero;"/>
                <path d="M1964.05,1232.42L1963.06,1221.39L1976.91,1224.01L1971.58,1233.85L1964.05,1232.42Z" style="fill:rgb(35,56,98);fill-rule:nonzero;"/>
                <path d="M1959.76,1207.29L1951.48,1219.88C1951.48,1219.88 1951.48,1227.62 1958.67,1233.24L1969.99,1222.7C1969.99,1222.7 1962.67,1219.91 1959.76,1207.29Z" style="fill:rgb(157,176,244);fill-rule:nonzero;"/>
                <path d="M1969.99,1222.7C1969.99,1222.7 1972.34,1231.12 1976.87,1234.98C1976.87,1234.98 1994.54,1230.23 1998.75,1221.17L1989.55,1209.29C1989.55,1209.29 1989.1,1218.28 1969.99,1222.7Z" style="fill:rgb(157,176,244);fill-rule:nonzero;"/>
                <path d="M1987.28,1194.31C1987.28,1194.31 1976.03,1201.79 1960.44,1200.01C1960.73,1197.54 1961.09,1194.91 1961.57,1192.37C1964.64,1191.62 1967.22,1191.15 1967.22,1191.15L1987.28,1194.31Z" style="fill:rgb(226,145,90);fill-rule:nonzero;"/>
                <path d="M1994.42,1185.81C1988.92,1200.94 1968.85,1197.08 1960.31,1194.65C1957.9,1193.97 1956.41,1193.4 1956.41,1193.4C1953.77,1192.2 1952.95,1187.59 1953.19,1181.77C1953.64,1170.25 1958.19,1153.99 1960.8,1150.07C1964.73,1144.17 1971.28,1138.18 1990.75,1146.53C2010.22,1154.88 2001.47,1166.42 1994.42,1185.81Z" style="fill:rgb(255,178,125);fill-rule:nonzero;"/>
                <path d="M2009.45,1178.04C2003.31,1183.05 1990.11,1192.32 1990.11,1192.32C1990.11,1192.32 1991.58,1190.58 1993.37,1185.58C1993.58,1185.01 1993.64,1184.18 1993.61,1183.3C1993.54,1180.85 1994.13,1178.4 1995.42,1176.31C1996.22,1175.01 1996.51,1173.65 1995.5,1172.69C1993.83,1171.11 1990.98,1172.56 1989.11,1173.84C1987.88,1174.68 1986.27,1174.73 1985,1173.94C1984.99,1173.94 1984.98,1173.93 1984.98,1173.93C1979.73,1170.64 1985.52,1164.85 1981.26,1160.04C1976.99,1155.23 1958.53,1154.57 1959.26,1151.56C1952.96,1148 1956.93,1134.86 1957.05,1134.16C1957.05,1134.16 1966.09,1134.96 1977.39,1132.14C1986.56,1129.84 1996.67,1135.73 1999.87,1138.15C1999.87,1137.58 1999.77,1136.77 1999.36,1135.91C1999.36,1135.91 2000.75,1137.29 2000.72,1138.88C2000.86,1139.03 2000.92,1139.12 2000.88,1139.15C2000.88,1139.15 2002.71,1139.11 2003.77,1139.82C2003.77,1139.82 2002.99,1139.57 2002.62,1140.04C2002.57,1140.09 2002.52,1140.12 2002.46,1140.16C2014.73,1148.83 2014.55,1173.87 2009.45,1178.04Z" style="fill:rgb(35,56,98);fill-rule:nonzero;"/>
                <path d="M1965.4,1183.62C1965.4,1183.62 1964.41,1185.53 1959.45,1183.94C1959.45,1183.94 1955.28,1182.62 1955.97,1180.42C1955.97,1180.42 1960.47,1179.87 1965.4,1183.62Z" style="fill:white;fill-rule:nonzero;"/>
                <path d="M1964.05,1232.42C1964.05,1232.42 1952.99,1372.1 1953.15,1383.74C1953.3,1395.38 1965.4,1407.68 1965.4,1407.68C1965.4,1407.68 1975.03,1397.13 1976.91,1386C1978.8,1374.87 1971.58,1233.85 1971.58,1233.85L1964.05,1232.42Z" style="fill:rgb(42,78,150);fill-rule:nonzero;"/>
                <path d="M2013.17,1223.51C2013.17,1223.51 2031.01,1227.78 2045.12,1254.88C2059.23,1281.98 2070.37,1336.64 2077.1,1351.06C2083.84,1365.49 2088.46,1410.92 2088.46,1410.92L2077.79,1416.15C2077.79,1416.15 2052.05,1369.59 2048.24,1354.32C2046.18,1346.06 2014.7,1279.93 2014.7,1279.93L2013.17,1223.51Z" style="fill:rgb(174,195,255);fill-rule:nonzero;"/>
                <path d="M2038.38,1407.68L2038.37,1407.68C2004.77,1402.85 2014.4,1291.65 2017.03,1291.21C2019.67,1290.77 2029.33,1311.09 2029.33,1311.09L2030.25,1315.6C2032.82,1341.38 2036.56,1370.99 2042.24,1402.23C2042.61,1404.29 2041.18,1406.11 2038.38,1407.68Z" style="fill:rgb(157,176,244);fill-rule:nonzero;"/>
            </g>
            <g>
                <g>
                    <path d="M2457.58,1650.59C2457.58,1650.59 2471.57,1663.36 2468.84,1672.43C2466.11,1681.5 2453.49,1687.55 2451.78,1698.64C2450.07,1709.72 2443.25,1715.77 2437.11,1715.77L2407.83,1715.77C2407.83,1715.77 2403.31,1707.97 2414.22,1705.62C2425.14,1703.27 2429.26,1690.24 2428.58,1678.14C2427.89,1666.05 2429.6,1649.92 2429.6,1649.92L2452.8,1644.55L2457.58,1650.59Z" style="fill:rgb(35,56,98);fill-rule:nonzero;"/>
                    <path d="M2285.96,1683.61C2285.96,1683.61 2288.47,1712.67 2282.33,1715.69L2203.73,1715.53C2203.73,1715.53 2203.73,1706.46 2216.35,1704.44C2228.97,1702.43 2251.15,1695.04 2254.91,1678.57C2258.66,1662.11 2285.96,1683.61 2285.96,1683.61Z" style="fill:rgb(35,56,98);fill-rule:nonzero;"/>
                    <path d="M2219.6,1273.2C2219.6,1273.2 2223.74,1324.13 2228.62,1385.35C2235.24,1468.51 2243.2,1570.66 2243.99,1590.01C2245.35,1623.61 2250.82,1677.36 2250.82,1677.36C2250.82,1677.36 2263.78,1690.13 2289.72,1684.75C2289.72,1684.75 2312.83,1608.02 2319.43,1526.83C2319.53,1525.5 2319.64,1524.16 2319.74,1522.82C2325.88,1440.17 2335.43,1266.14 2335.43,1266.14L2219.6,1273.2Z" style="fill:rgb(42,78,150);fill-rule:nonzero;"/>
                    <path d="M2219.6,1273.2C2219.6,1273.2 2223.74,1324.13 2228.62,1385.35L2319.43,1526.83C2319.53,1525.5 2319.64,1524.16 2319.74,1522.82C2325.88,1440.17 2335.43,1266.14 2335.43,1266.14L2219.6,1273.2Z" style="fill:rgb(35,56,98);fill-rule:nonzero;"/>
                    <path d="M2238.53,1279.25C2238.53,1279.25 2313.25,1463.69 2362.38,1550.37C2411.52,1637.05 2426.87,1661.24 2426.87,1661.24C2426.87,1661.24 2455.02,1650.15 2457.58,1642.59C2457.58,1642.59 2438.79,1475.25 2405.89,1434.46C2387.3,1411.41 2371.26,1360.27 2372.06,1336.07C2373.45,1294.34 2357.78,1245.98 2357.78,1245.98L2238.53,1279.25Z" style="fill:rgb(42,78,150);fill-rule:nonzero;"/>
                </g>
                <path d="M2178.86,1281.95C2178.86,1281.95 2164.91,1300.85 2163.88,1305.89C2162.85,1310.93 2161.65,1328.93 2163.32,1334.2C2164.99,1339.47 2173.68,1318.48 2177.21,1316.06C2180.73,1313.64 2175.01,1324.32 2176.38,1325.94C2177.75,1327.57 2184.47,1319.38 2187.12,1316.59C2189.76,1313.79 2188.52,1299.81 2191.35,1291.3C2194.17,1282.79 2178.86,1281.95 2178.86,1281.95Z" style="fill:rgb(255,178,125);fill-rule:nonzero;"/>
                <path d="M2240.39,1007.42C2240.39,1007.42 2221.54,1182.93 2219.86,1187.93C2219.49,1189.02 2218.01,1194.58 2215.93,1202.57C2212.96,1213.99 2208.77,1230.39 2204.79,1245.99C2198.79,1269.55 2192.31,1289.93 2192.31,1289.93C2192.31,1289.93 2189.46,1291.77 2182.6,1291.18C2177.91,1290.78 2175.39,1286.78 2175.39,1286.78C2175.39,1286.78 2176.07,1200.61 2180.28,1180.98C2184.5,1161.33 2197.96,1040.66 2204.77,1024.42C2211.56,1008.18 2240.39,1007.42 2240.39,1007.42Z" style="fill:white;fill-rule:nonzero;"/>
                <path d="M2215.93,1202.57C2212.96,1213.98 2208.77,1230.39 2204.79,1245.98C2202.23,1238.77 2198.97,1227.3 2196.91,1211.56C2193.12,1182.51 2204.76,1120.63 2204.76,1120.63L2215.93,1202.57Z" style="fill:rgb(220,234,255);fill-rule:nonzero;"/>
                <path d="M2365.23,1277.23C2338.17,1292.5 2222.23,1292.15 2216.86,1280.17C2204.87,1253.41 2201.86,1117.43 2207.52,1075.72C2207.52,1075.72 2210.45,1011.62 2216.86,1014.44C2259.68,994.769 2329,1012.64 2329,1012.64C2347.69,1018.14 2346.09,1060.85 2351.3,1120.83C2351.97,1128.55 2352.72,1136.61 2353.55,1144.93C2357.24,1181.97 2362.61,1224.52 2370.76,1269.4C2371.31,1272.35 2369.25,1274.97 2365.23,1277.23Z" style="fill:white;fill-rule:nonzero;"/>
                <path d="M2296.98,1005.43C2296.26,1016.89 2281.31,1015.59 2263.32,1011.49C2245.35,1007.4 2251.86,996.791 2251.86,996.791C2251.86,996.791 2252.12,988.645 2253.26,978.884C2253.68,975.336 2254.19,971.56 2254.87,967.898C2255.19,966.105 2255.54,964.337 2255.95,962.632C2258.3,952.542 2291.86,962.278 2291.62,964.993C2290.97,972.317 2296.27,996.424 2296.98,1005.43Z" style="fill:rgb(255,178,125);fill-rule:nonzero;"/>
                <path d="M2258.44,1025.44L2257.02,1009.6L2276.92,1013.35L2269.26,1027.5L2258.44,1025.44Z" style="fill:rgb(35,56,98);fill-rule:nonzero;"/>
                <path d="M2252.28,989.333L2240.39,1007.42C2240.39,1007.42 2240.39,1018.55 2250.71,1026.62L2266.97,1011.48C2266.97,1011.48 2256.46,1007.47 2252.28,989.333Z" style="fill:rgb(220,234,255);fill-rule:nonzero;"/>
                <path d="M2266.97,1011.48C2266.97,1011.48 2270.35,1023.57 2276.85,1029.12C2276.85,1029.12 2302.25,1022.29 2308.3,1009.28L2295.07,992.213C2295.07,992.213 2294.43,1005.13 2266.97,1011.48Z" style="fill:rgb(220,234,255);fill-rule:nonzero;"/>
                <path d="M2291.81,970.688C2291.81,970.688 2275.65,981.435 2253.26,978.883C2253.68,975.335 2254.19,971.559 2254.87,967.897C2259.29,966.823 2262.99,966.154 2262.99,966.154L2291.81,970.688Z" style="fill:rgb(226,145,90);fill-rule:nonzero;"/>
                <path d="M2302.07,958.477C2294.17,980.22 2265.34,974.668 2253.07,971.178C2249.61,970.201 2247.47,969.383 2247.47,969.383C2243.68,967.662 2242.5,961.041 2242.84,952.679C2243.49,936.13 2250.03,912.765 2253.77,907.135C2259.42,898.663 2268.83,890.05 2296.79,902.045C2324.76,914.044 2312.2,930.62 2302.07,958.477Z" style="fill:rgb(255,178,125);fill-rule:nonzero;"/>
                <path d="M2323.67,947.313C2314.84,954.511 2295.88,967.834 2295.88,967.834C2295.88,967.834 2297.99,965.34 2300.57,958.154C2300.86,957.337 2300.95,956.144 2300.91,954.877C2300.81,951.353 2301.66,947.835 2303.51,944.833C2304.66,942.958 2305.08,941.012 2303.62,939.634C2301.22,937.364 2297.13,939.448 2294.45,941.285C2292.68,942.496 2290.36,942.567 2288.54,941.436C2288.53,941.429 2288.52,941.422 2288.5,941.414C2280.97,936.691 2289.29,928.369 2283.16,921.461C2277.02,914.554 2250.51,913.607 2251.57,909.275C2242.51,904.16 2248.22,885.281 2248.38,884.283C2248.38,884.283 2261.38,885.432 2277.61,881.379C2290.78,878.07 2305.3,886.531 2309.89,890.017C2309.89,889.183 2309.76,888.022 2309.16,886.797C2309.16,886.797 2311.16,888.767 2311.12,891.065C2311.32,891.267 2311.41,891.406 2311.35,891.444C2311.35,891.444 2313.97,891.393 2315.5,892.403C2315.5,892.403 2314.38,892.049 2313.85,892.719C2313.79,892.795 2313.71,892.845 2313.62,892.896C2331.25,905.349 2330.99,941.327 2323.67,947.313Z" style="fill:rgb(188,63,63);fill-rule:nonzero;"/>
                <path d="M2260.38,955.335C2260.38,955.335 2258.96,958.073 2251.83,955.802C2251.83,955.802 2245.85,953.896 2246.84,950.744C2246.84,950.744 2253.3,949.952 2260.38,955.335Z" style="fill:white;fill-rule:nonzero;"/>
                <path d="M2258.44,1025.44C2258.44,1025.44 2242.56,1226.11 2242.78,1242.83C2243.01,1259.55 2260.38,1277.23 2260.38,1277.23C2260.38,1277.23 2274.22,1262.07 2276.93,1246.08C2279.63,1230.08 2269.26,1027.5 2269.26,1027.5L2258.44,1025.44Z" style="fill:rgb(42,78,150);fill-rule:nonzero;"/>
                <path d="M2365.23,1277.23L2365.21,1277.23C2316.94,1270.28 2330.77,1110.53 2334.56,1109.9C2338.35,1109.27 2352.23,1138.46 2352.23,1138.46L2353.55,1144.93C2357.24,1181.97 2362.61,1224.52 2370.76,1269.4C2371.31,1272.35 2369.25,1274.97 2365.23,1277.23Z" style="fill:rgb(220,234,255);fill-rule:nonzero;"/>
                <g>
                    <path d="M2507.12,1396.23L2405.05,1425.93C2391.77,1429.79 2377.74,1422.09 2373.87,1408.8L2361,1364.57C2357.14,1351.29 2364.84,1337.26 2378.13,1333.39L2480.19,1303.69C2493.48,1299.82 2507.51,1307.53 2511.38,1320.81L2524.25,1365.05C2528.11,1378.33 2520.41,1392.36 2507.12,1396.23Z" style="fill:rgb(160,46,46);fill-rule:nonzero;"/>
                    <path d="M2374.45,1360.63L2387.47,1405.37C2389.99,1414.03 2396.82,1420.33 2404.94,1422.62C2407.64,1423.38 2410.47,1423.7 2413.35,1423.51C2413.36,1423.51 2413.36,1423.51 2413.37,1423.51L2413.37,1423.51C2415.16,1423.39 2416.97,1423.09 2418.77,1422.56L2520.65,1392.91C2533.99,1389.03 2541.72,1374.95 2537.84,1361.62L2524.82,1316.87C2520.94,1303.54 2506.86,1295.8 2493.52,1299.68L2458.44,1309.89L2455.67,1300.35C2454.39,1295.93 2449.75,1293.39 2445.34,1294.67L2441.49,1295.79L2420.16,1302L2414.85,1303.55C2412.72,1304.16 2410.96,1305.59 2409.88,1307.54C2408.81,1309.49 2408.56,1311.75 2409.18,1313.87L2411.96,1323.42L2391.63,1329.33C2390.83,1329.56 2390.05,1329.84 2389.29,1330.14C2389.29,1330.14 2389.28,1330.15 2389.28,1330.15L2389.27,1330.15C2381.54,1333.25 2376.04,1339.94 2374.16,1347.68L2374.16,1347.69C2373.16,1351.83 2373.18,1356.26 2374.45,1360.63ZM2453.43,1311.35L2416.97,1321.96L2414.2,1312.41C2413.72,1310.77 2414.67,1309.04 2416.31,1308.56L2425.47,1305.9L2442.26,1301L2446.8,1299.69C2447.11,1299.6 2447.42,1299.56 2447.72,1299.57C2449.05,1299.59 2450.26,1300.47 2450.66,1301.8L2453.43,1311.35Z" style="fill:rgb(188,63,63);fill-rule:nonzero;"/>
                </g>
                <path d="M2422.85,1282.78C2422.85,1282.78 2419.69,1309.24 2425.62,1308.86C2431.55,1308.48 2446.07,1305.64 2447.06,1301.08C2448.05,1296.52 2435.95,1275.26 2435.95,1275.26L2422.85,1282.78Z" style="fill:rgb(255,178,125);fill-rule:nonzero;"/>
                <path d="M2423.61,1282.71C2423.61,1282.71 2419.07,1288.35 2418.68,1292.79C2418.29,1297.23 2416.12,1304.99 2418.16,1305.49C2420.19,1305.99 2423.91,1295.83 2423.91,1295.83L2423.61,1282.71Z" style="fill:rgb(255,178,125);fill-rule:nonzero;"/>
                <path d="M2329.01,1012.64C2329.01,1012.64 2354.64,1018.78 2374.91,1057.71C2395.18,1096.64 2411.18,1175.16 2420.86,1195.89C2430.53,1216.61 2437.9,1278.8 2437.9,1278.8C2437.9,1278.8 2436.39,1281.89 2431.17,1283.02C2427.13,1283.89 2422.97,1283.55 2422.97,1283.55C2422.97,1283.55 2384.86,1222.5 2379.39,1200.57C2376.43,1188.7 2331.2,1093.69 2331.2,1093.69L2329.01,1012.64Z" style="fill:white;fill-rule:nonzero;"/>
            </g>
            <g>
                <path d="M640.731,1690.44L636.89,1662.77L653.024,1649.29L658.107,1685.92L640.731,1690.44Z" style="fill:rgb(255,178,125);fill-rule:nonzero;"/>
                <path d="M694.31,1715.15L628.532,1715.15C628.532,1715.15 626.956,1705.12 630.391,1697.52C633.683,1690.22 638.806,1685.71 639.274,1680.12C643.454,1684.43 648.597,1687.19 658.106,1685.91C659.272,1687.81 665.627,1697.91 669.52,1700.71C673.819,1703.8 692.987,1702.7 694.31,1715.15Z" style="fill:rgb(35,56,98);fill-rule:nonzero;"/>
                <path d="M681.094,1316.88C676.792,1351.48 673.275,1384.11 670.409,1414.51C655.1,1576.52 658.105,1675.54 658.105,1675.54C658.105,1675.54 656.999,1678.47 647.508,1678.51C642.144,1678.54 636.889,1677.37 636.889,1677.37C636.889,1677.37 602.615,1571.58 605.26,1511.38C605.575,1504.14 606.426,1497.56 607.935,1491.89C616.158,1461.09 577.508,1343.3 619.521,1299.43C661.528,1255.57 683.073,1301 681.094,1316.88Z" style="fill:rgb(249,151,70);fill-rule:nonzero;"/>
                <path d="M681.094,1316.88C676.792,1351.48 673.275,1384.11 670.409,1414.51L605.261,1511.38C605.576,1504.14 606.427,1497.56 607.936,1491.89C616.159,1461.09 577.509,1343.3 619.522,1299.43C661.528,1255.57 683.073,1301 681.094,1316.88Z" style="fill:rgb(237,125,43);fill-rule:nonzero;"/>
                <path d="M732.864,986.809C732.864,986.809 731.278,978.903 729.493,972.869C728.703,970.199 734.209,952.664 738.019,950.506C741.83,948.348 751.754,960.157 748.946,969.224C747.504,973.882 745.133,989.038 745.133,989.038L732.864,986.809Z" style="fill:rgb(255,178,125);fill-rule:nonzero;"/>
                <path d="M732.864,986.809C732.864,986.809 730.792,982.225 728.922,981.482C727.051,980.739 725.047,973.243 723.673,970.271C723.673,970.271 724.999,968.326 727.32,970.828C728.737,972.354 731.892,976.828 731.892,976.828L732.864,986.809Z" style="fill:rgb(255,178,125);fill-rule:nonzero;"/>
                <path d="M461.323,1013.4C460.92,1014.23 460.36,1015.72 459.86,1017.12C459.852,1016.74 459.846,1016.36 459.842,1015.99C459.816,1013.21 449.418,998.051 445.143,997.102C440.868,996.153 434.834,1010.35 440.173,1018.2C442.916,1022.23 449.618,1036.03 449.618,1036.03L460.698,1030.31C460.698,1030.31 461.337,1025.32 462.909,1024.06C464.48,1022.8 464.203,1015.05 464.647,1011.8C464.647,1011.8 462.81,1010.33 461.323,1013.4Z" style="fill:rgb(255,178,125);fill-rule:nonzero;"/>
                <path d="M530.417,1682.14C529.487,1673.28 529.257,1649.95 529.257,1649.95C529.257,1649.95 553.028,1642.35 552.153,1647.57C547.852,1673.22 549.019,1685.92 549.019,1685.92L539.406,1691.66L530.417,1682.14Z" style="fill:rgb(255,178,125);fill-rule:nonzero;"/>
                <path d="M661.241,1315.23C661.241,1315.23 569.409,1566.96 551.332,1676.15C551.332,1676.15 547.144,1679.03 539.332,1678.07C530.472,1676.99 528.044,1670.83 528.044,1670.83C528.044,1670.83 511.454,1539.96 544.428,1494.53C567.082,1463.31 534.657,1326.22 587.42,1315.23C640.185,1304.24 661.241,1315.23 661.241,1315.23Z" style="fill:rgb(249,151,70);fill-rule:nonzero;"/>
                <path d="M644.931,1073.08L644.93,1073.07C644.913,1072.96 644.888,1072.86 644.853,1072.75C644.317,1070.53 643.73,1068.35 643.1,1066.19L643.098,1066.18C641.176,1059.56 638.89,1053.26 636.422,1047.69C635.001,1044.5 633.53,1041.55 632.024,1038.91C631.794,1038.51 631.569,1038.13 631.353,1037.74L631.342,1037.73C627.794,1031.76 624.145,1027.64 620.854,1026.37C614.85,1024.05 608.171,1024.69 603.573,1025.65C604.582,1024.24 606.871,1023.45 606.871,1023.45C603.929,1023.44 597.935,1027.25 597.935,1027.25C555.639,1017.79 558.111,1077.62 560.991,1091.18C563.861,1104.74 550.243,1111.33 531.038,1125.21C494.387,1151.68 495.001,1179.75 495.001,1179.75C495.331,1179.89 495.692,1180.05 496.067,1180.24C497.542,1176.61 500.67,1169.73 503.948,1168.28C503.856,1168.6 501.189,1177.51 500.431,1182.49C506.014,1185.57 513.74,1190.33 522.129,1195.71L522.139,1195.72C533.365,1202.9 545.754,1211.17 555.681,1217.88C555.209,1215.15 554.742,1211.26 555.436,1209.05L558.599,1218.85L559.014,1220.13C565.35,1224.42 570.349,1227.86 572.887,1229.62C573.148,1229.8 573.378,1229.96 573.586,1230.1C574.327,1230.61 574.725,1230.88 574.725,1230.88C573.882,1227.42 577.579,1218.39 583.785,1207.01C584.21,1206.22 584.662,1205.41 585.121,1204.59C587.125,1200.99 589.363,1197.2 591.77,1193.3C592.637,1191.88 593.514,1190.47 594.424,1189.03C594.422,1189.02 594.432,1189.02 594.432,1189.02C595.159,1187.86 595.897,1186.71 596.659,1185.54L596.667,1185.53C598.465,1182.75 600.326,1179.95 602.223,1177.15C607.14,1169.89 612.345,1162.68 617.489,1156.07C624.958,1146.44 632.286,1138.07 638.424,1132.59C638.625,1132.18 638.815,1131.76 638.986,1131.33C639.947,1129.1 640.684,1126.62 641.255,1124.09C641.433,1123.34 641.591,1122.57 641.731,1121.81C643.26,1113.76 643.29,1105.77 643.27,1103.87C643.762,1111.65 643.566,1117.52 643.045,1121.95C642.927,1122.93 642.799,1123.83 642.651,1124.66L642.653,1124.67C642.326,1126.57 641.949,1128.13 641.543,1129.43C642.548,1128.18 643.431,1126.82 644.212,1125.32C644.723,1124.35 645.189,1123.32 645.601,1122.25C650.552,1109.61 649.219,1090.76 644.931,1073.08Z" style="fill:rgb(22,53,96);fill-rule:nonzero;"/>
                <path d="M636.984,1133.69C637.126,1133.74 625.143,1142.41 614.978,1141.19C605.418,1140.05 597.642,1129.03 597.765,1128.99C601.541,1127.63 601.868,1122.12 598.368,1099.16L600.178,1099.24L630.625,1100.7C630.625,1100.7 631.336,1110.11 632.621,1118.88C633.696,1126.24 635.182,1133.16 636.984,1133.69Z" style="fill:rgb(255,178,125);fill-rule:nonzero;"/>
                <path d="M630.625,1100.7C630.625,1100.7 631.336,1110.11 632.621,1118.88C616.001,1120.87 605.008,1107.08 600.178,1099.24L630.625,1100.7Z" style="fill:rgb(237,151,93);fill-rule:nonzero;"/>
                <path d="M596.644,1096.48C596.644,1096.48 585.933,1084.06 582.108,1072.65C579.377,1064.51 579.025,1032.87 610.852,1032.7C610.852,1032.7 620.036,1032.24 629.397,1036.72C636.843,1040.29 648.075,1048.7 641.182,1077.38L639.705,1086.95L596.644,1096.48Z" style="fill:rgb(22,53,96);fill-rule:nonzero;"/>
                <path d="M684.932,1310.4C684.932,1310.4 645.311,1333.94 595.566,1321.84C594.98,1321.69 554.605,1315.25 554.605,1315.25C555.299,1313.35 560.517,1282.16 561.199,1280.42C570.024,1257.64 586.153,1134.04 599.629,1127.94C603.07,1131.69 612.904,1134.25 621.321,1133.51C631.013,1132.65 634.259,1128.46 633.454,1123.96C644.18,1129.03 652.421,1133.74 652.421,1133.74C662.223,1148.43 684.932,1310.4 684.932,1310.4Z" style="fill:white;fill-rule:nonzero;"/>
                <path d="M637.388,1108.18C637.388,1108.18 598.326,1114.65 594.671,1090.26C591.016,1065.88 583.513,1050.29 608.299,1045.12C633.084,1039.96 639.336,1048.54 642.535,1056.38C645.734,1064.23 647.454,1105.87 637.388,1108.18Z" style="fill:rgb(255,178,125);fill-rule:nonzero;"/>
                <path d="M626.043,1041.87C626.043,1041.87 619.578,1072.08 603.754,1078.76C587.93,1085.44 580.137,1082.1 580.137,1082.1C580.137,1082.1 591.266,1070.19 591.283,1052.3C591.282,1052.3 615.93,1029.46 626.043,1041.87Z" style="fill:rgb(22,53,96);fill-rule:nonzero;"/>
                <path d="M623.731,1044.59C623.731,1044.59 632.688,1049.79 635.564,1055.71C638.44,1061.63 641.22,1074.29 644.882,1073.3C644.882,1073.3 650.066,1052.65 639.352,1042.99C627.992,1032.76 623.731,1044.59 623.731,1044.59Z" style="fill:rgb(22,53,96);fill-rule:nonzero;"/>
                <path d="M745.4,987.372C743.812,986.813 741.47,985.489 738.417,985.214C735.697,984.969 732.28,985.856 732.28,985.856C732.28,985.856 721.259,1054.36 720.441,1057.99C719.623,1061.62 673.171,1113.95 660.647,1113.74C649.338,1113.55 635.94,1122.28 633.454,1123.96C633.454,1123.96 659.791,1179.65 661.104,1190.11C662.533,1201.5 676.167,1376.79 676.167,1376.79C676.167,1376.79 675.356,1384.94 690.593,1380.56C705.829,1376.17 709.64,1372.55 709.64,1372.55C709.64,1372.55 695.644,1234.55 692.708,1191.63C692.314,1185.87 691.374,1180.53 690.035,1175.62C688.744,1170.87 689.762,1165.8 692.657,1161.83C711.921,1135.38 742.341,1092.54 744.036,1083.43C746.524,1070.05 745.4,987.372 745.4,987.372Z" style="fill:rgb(43,71,139);fill-rule:nonzero;"/>
                <path d="M585.223,1715.15L519.445,1715.15C519.445,1715.15 517.868,1705.12 521.304,1697.52C524.596,1690.22 529.719,1685.71 530.187,1680.12C534.367,1684.43 539.51,1687.19 549.02,1685.91C550.185,1687.81 556.541,1697.91 560.434,1700.71C564.731,1703.8 583.898,1702.7 585.223,1715.15Z" style="fill:rgb(35,56,98);fill-rule:nonzero;"/>
                <path d="M630.408,1195.52C628.192,1181.88 599.888,1127.1 599.888,1127.1C599.888,1127.1 581.995,1121.75 570.219,1126.02C558.443,1130.28 497.512,1095.88 495.559,1092.71C493.606,1089.55 460.971,1028.74 460.971,1028.74C460.971,1028.74 458.265,1027.17 453.929,1029.43C449.64,1031.66 449.62,1036.03 449.62,1036.03C449.62,1036.03 474.807,1112.6 481.508,1124.44C485.549,1131.58 519.521,1156.45 545.86,1175.07C550.889,1178.62 553.53,1184.68 552.704,1190.78C549.162,1216.96 548.261,1231.71 544.188,1276.64C540.809,1313.91 539.516,1386.06 539.516,1386.06C539.516,1386.06 568.991,1396.26 589.332,1397.61C609.674,1398.97 614.107,1377.52 614.107,1377.52C614.107,1377.52 632.686,1209.55 630.408,1195.52Z" style="fill:rgb(43,71,139);fill-rule:nonzero;"/>
                <path d="M624.587,1096.12C624.587,1096.12 629.333,1098.91 634.936,1098.07C638.775,1097.49 639.646,1092.94 639.646,1092.94C639.646,1092.94 636.978,1092.1 632.72,1092.95C628.463,1093.81 624.587,1096.12 624.587,1096.12Z" style="fill:white;fill-rule:nonzero;"/>
            </g>
            <g>
                <path d="M1872.25,631.22C1872.25,631.22 1853.97,598.738 1872.25,592.131C1890.52,585.524 1898.79,591.616 1899.66,599.015C1900.53,606.413 1892.7,635.573 1892.7,635.573L1872.25,631.22Z" style="fill:rgb(255,178,125);fill-rule:nonzero;"/>
                <path d="M1886.89,838.962C1853.57,844.968 1822.93,847.754 1795.28,848.372C1769.02,848.964 1745.47,847.597 1724.85,845.204C1719.31,844.569 1714,843.855 1708.88,843.08C1654.93,834.898 1625.13,820.389 1625.13,820.389C1625.13,820.389 1674.43,717.192 1714.26,721.153C1760.98,725.81 1840.15,767.737 1848.02,755.978C1856.88,742.73 1864.3,629.115 1864.3,629.115C1885.01,614.927 1897.38,629.881 1897.38,629.881C1897.38,629.881 1937.85,829.771 1886.89,838.962Z" style="fill:rgb(249,151,70);fill-rule:nonzero;"/>
                <path d="M1886.89,838.962C1853.57,844.968 1822.93,847.754 1795.28,848.372C1769.02,848.964 1745.47,847.597 1724.85,845.204C1712.42,805.67 1703.48,765.291 1728.48,789.637C1772.58,832.573 1886.89,838.962 1886.89,838.962Z" style="fill:rgb(237,125,43);fill-rule:nonzero;"/>
                <path d="M1621.39,1672.18C1621.39,1672.18 1617.85,1713.2 1626.52,1717.48L1737.5,1717.25C1737.5,1717.25 1737.5,1704.44 1719.67,1701.59C1701.85,1698.75 1670.53,1688.31 1665.24,1665.07C1659.93,1641.82 1621.39,1672.18 1621.39,1672.18Z" style="fill:rgb(35,56,98);fill-rule:nonzero;"/>
                <path d="M1702.87,1175.66C1702.32,1202.48 1701.03,1230.15 1698.51,1255.02C1686.53,1373.02 1682.31,1515.6 1680.59,1543.09C1677.6,1590.8 1668.18,1667.03 1668.18,1667.03C1668.18,1667.03 1649.48,1684.78 1613.04,1676.31C1613.04,1676.31 1582.84,1566.52 1576.1,1450.91C1575.99,1449.01 1575.89,1447.1 1575.79,1445.2C1575.01,1429.91 1574.19,1412.43 1573.35,1393.59C1567.8,1267.36 1561.77,1079.85 1561.77,1079.85L1701.03,1047.15C1701.03,1047.15 1704.24,1108.78 1702.87,1175.66Z" style="fill:rgb(42,78,150);fill-rule:nonzero;"/>
                <path d="M1702.87,1175.66C1667.58,1236.55 1600.3,1348.74 1573.35,1393.59C1567.8,1267.36 1561.77,1079.85 1561.77,1079.85L1701.03,1047.15C1701.03,1047.15 1704.24,1108.78 1702.87,1175.66Z" style="fill:rgb(35,56,98);fill-rule:nonzero;"/>
                <path d="M1350.24,1057.7C1350.24,1057.7 1327.58,1084.35 1325.54,1091.74C1323.51,1099.12 1319.88,1125.75 1321.82,1133.75C1323.76,1141.75 1338.83,1111.44 1344.31,1108.2C1349.79,1104.97 1340.2,1120.26 1342.07,1122.81C1343.94,1125.36 1354.76,1113.88 1358.98,1110C1363.2,1106.12 1362.79,1085.22 1367.85,1072.86C1372.92,1060.5 1350.24,1057.7 1350.24,1057.7Z" style="fill:rgb(255,178,125);fill-rule:nonzero;"/>
                <path d="M1344.93,1625.56C1344.93,1625.56 1325.17,1643.58 1329.03,1656.39C1332.88,1669.2 1350.71,1677.74 1353.12,1693.39C1355.53,1709.05 1365.16,1717.59 1373.83,1717.59L1415.18,1717.59C1415.18,1717.59 1421.56,1706.57 1406.14,1703.25C1390.73,1699.93 1384.91,1681.53 1385.88,1664.46C1386.84,1647.38 1384.43,1624.61 1384.43,1624.61L1351.67,1617.02L1344.93,1625.56Z" style="fill:rgb(35,56,98);fill-rule:nonzero;"/>
                <path d="M1679.09,1082.71C1679.09,1082.71 1548.72,1361.64 1479.34,1484.04C1409.97,1606.43 1388.29,1640.58 1388.29,1640.58C1388.29,1640.58 1348.54,1624.93 1344.93,1614.26C1344.93,1614.26 1371.46,1377.97 1417.92,1320.37C1444.17,1287.83 1475.01,1190.16 1476.45,1156C1477.9,1121.85 1508.35,1040.32 1508.35,1040.32L1679.09,1082.71Z" style="fill:rgb(42,78,150);fill-rule:nonzero;"/>
                <path d="M1717.2,1095.86C1717.2,1095.86 1665.36,1130.52 1591.98,1127.3C1559.78,1125.9 1495.91,1116.77 1485.6,1091.16C1483.18,1085.14 1484.95,1077.51 1488.58,1065.8C1498.01,1035.36 1519.97,977.393 1513.34,848.865C1512.72,836.908 1513.06,825.663 1514.2,815.136C1521.11,751.828 1557.39,714.336 1592.46,702.086C1677.98,672.195 1706.49,713.607 1706.49,713.607C1706.49,713.607 1744.29,743.556 1749.99,806.059C1761.38,931.081 1717.2,1095.86 1717.2,1095.86Z" style="fill:rgb(249,151,70);fill-rule:nonzero;"/>
                <path d="M1617.52,694.905C1617.52,694.905 1656.76,718.772 1699.32,712.023C1699.32,712.023 1707.74,709.883 1703.6,700.005C1706.19,692.033 1705.88,692.751 1707.38,686.826C1711.11,673.192 1712.25,665.326 1712.25,665.326L1688.1,639.939L1665.22,615.679C1658.9,673.663 1617.52,694.905 1617.52,694.905Z" style="fill:rgb(255,178,125);fill-rule:nonzero;"/>
                <path d="M1661.56,637.669C1661.56,637.669 1674.7,672.802 1707.38,686.826C1711.11,673.192 1713.54,658.929 1713.54,658.929L1688.1,639.939L1661.56,637.669Z" style="fill:rgb(237,152,95);fill-rule:nonzero;"/>
                <path d="M1739.35,664.099C1739.35,664.099 1664.45,673.462 1659.19,627.432C1653.93,581.403 1640.72,551.612 1688.32,543.687C1735.93,535.763 1747.24,552.307 1752.79,567.254C1758.34,582.203 1758.7,660.477 1739.35,664.099Z" style="fill:rgb(255,178,125);fill-rule:nonzero;"/>
                <path d="M1635.54,536.206C1634.89,535.406 1633.36,534.722 1629.9,534.401C1629.9,534.401 1632.74,532.772 1636.45,532.82C1637.36,528.024 1640.24,519.583 1648.62,517.822C1648.62,517.822 1644.07,520.031 1643.3,525.138C1653.29,515.626 1674.16,509.217 1731.04,515.878C1806.01,524.656 1779.41,571.859 1769.45,577.23C1759.5,582.601 1735.6,565.941 1717.41,566.695C1699.22,567.448 1694.78,593.525 1688.49,596.888C1682.2,600.252 1684.86,593.985 1676.68,589.907C1668.49,585.829 1667.18,599.594 1669.25,608.653C1671.31,617.713 1659.42,629.11 1659.42,629.11L1648.34,616.225C1637.25,603.34 1628.35,550.202 1634.03,539.162C1634.53,538.187 1635.03,537.198 1635.54,536.206Z" style="fill:rgb(44,58,100);fill-rule:nonzero;"/>
                <g>
                    <path d="M1864.3,609.673L1737.14,610.805L1736.27,591.676L1863.03,581.852L1864.3,609.673Z" style="fill:rgb(42,78,150);fill-rule:nonzero;"/>
                    <path d="M1960.29,612.867L1821.84,614.869L1820.26,580.088L1958.31,569.391L1960.29,612.867Z" style="fill:rgb(42,78,150);fill-rule:nonzero;"/>
                    <path d="M2053.64,615.597L1936.89,615.742L1934.76,568.788L2051.03,558.209L2053.64,615.597Z" style="fill:rgb(35,56,98);fill-rule:nonzero;"/>
                    <path d="M2055.31,623.523C2058.91,623.359 2061.7,620.307 2061.53,616.706L2058.8,556.39C2058.63,552.788 2055.58,550.001 2051.98,550.165C2048.38,550.329 2045.59,553.381 2045.75,556.983L2048.49,617.298C2048.66,620.899 2051.71,623.687 2055.31,623.523Z" style="fill:rgb(35,56,98);fill-rule:nonzero;"/>
                    <path d="M1736.74,614.889C1733.54,615.035 1730.83,612.557 1730.68,609.356L1729.97,593.705C1729.82,590.503 1732.3,587.79 1735.5,587.645C1738.7,587.5 1741.42,589.977 1741.56,593.178L1742.28,608.829C1742.42,612.031 1739.94,614.744 1736.74,614.889Z" style="fill:rgb(42,78,150);fill-rule:nonzero;"/>
                </g>
                <path d="M1488.58,1065.8C1498.01,1035.36 1519.97,977.393 1513.34,848.865C1512.72,836.908 1513.06,825.663 1514.2,815.136L1514.21,815.137C1542.36,812.718 1585.38,843.144 1585.38,843.144C1585.38,843.144 1558.88,1004.68 1488.58,1065.8Z" style="fill:rgb(237,125,43);fill-rule:nonzero;"/>
                <path d="M1617.52,694.905C1617.52,694.905 1545.35,707.31 1507.71,753.261C1470.07,799.212 1409.52,864.004 1395.21,886.692C1380.89,909.381 1341.15,1063.79 1341.15,1063.79C1341.15,1063.79 1343.78,1068.75 1354.74,1071.64C1365.23,1074.41 1372.84,1070.12 1372.84,1070.12C1372.84,1070.12 1425.49,980.012 1445.31,934.996C1453.54,916.293 1595.93,842.224 1649.46,849.898C1670.48,852.912 1617.52,694.905 1617.52,694.905Z" style="fill:rgb(249,151,70);fill-rule:nonzero;"/>
                <path d="M1863.54,576.374C1863.54,576.374 1879.06,585.869 1888.35,581.852C1897.63,577.835 1896.81,574.157 1896.81,574.157C1896.81,574.157 1868.76,566.374 1863.54,576.374Z" style="fill:rgb(255,178,125);fill-rule:nonzero;"/>
                <path d="M1687.55,745.245C1687.55,745.245 1655.88,945.2 1431.17,1003.42L1406.69,1051.71L1449.69,1058.99C1449.69,1058.99 1705.52,984.874 1702.07,741.709L1687.55,745.245Z" style="fill:rgb(188,63,63);fill-rule:nonzero;"/>
                <path d="M1682.64,713.329L1672.27,714.345L1672.27,729.359L1687.55,745.245L1702.08,741.709L1702.08,720.873L1691.63,713.329L1682.64,713.329Z" style="fill:rgb(160,46,46);fill-rule:nonzero;"/>
                <path d="M1641.94,673.566C1641.94,673.566 1631.9,675.831 1608.94,694.905C1608.94,694.905 1631.77,743.36 1679.93,749.163C1679.93,749.163 1679.16,726.676 1682.64,713.329C1682.64,713.329 1644.47,699.665 1641.94,673.566Z" style="fill:rgb(237,125,43);fill-rule:nonzero;"/>
                <path d="M1682.64,713.329C1682.64,713.329 1706.14,725.805 1707.88,745.245C1707.88,745.245 1716.87,731.012 1714.26,721.156C1711.65,711.299 1703.6,700.006 1703.6,700.006C1703.6,700.006 1704.4,711.878 1682.64,713.329Z" style="fill:rgb(237,125,43);fill-rule:nonzero;"/>
            </g>
        </g>
    </g>
</svg>
