<?xml version="1.0" encoding="UTF-8" standalone="no"?>
<!DOCTYPE svg PUBLIC "-//W3C//DTD SVG 1.1//EN" "http://www.w3.org/Graphics/SVG/1.1/DTD/svg11.dtd">
<svg width="100%" height="100%" viewBox="0 0 3200 2000" version="1.1" xmlns="http://www.w3.org/2000/svg" xmlns:xlink="http://www.w3.org/1999/xlink" xml:space="preserve" xmlns:serif="http://www.serif.com/" style="fill-rule:evenodd;clip-rule:evenodd;stroke-linejoin:round;stroke-miterlimit:2;">
    <g>
        <path d="M434.363,1775.05C434.363,1775.05 109.52,1379.63 268.277,972.551C371.759,707.207 759.936,561.812 979.005,707.207C1072.31,769.133 1371.65,709.295 1531.48,452.917C1842.08,-45.289 2926.05,257.279 2728.71,1022.2C2633.21,1392.36 3019.35,1405.82 2822.6,1775.84L434.363,1775.05Z" style="fill:rgb(235,243,250);fill-rule:nonzero;"/>
        <path d="M1715.37,1771.26L1714.53,1771.24C1707.66,1771.12 1702.36,1765.51 1703,1759.05L1748.81,1301.57L1788.78,1305.13L1723.01,1765.08C1722.49,1768.67 1719.21,1771.33 1715.37,1771.26Z" style="fill:rgb(172,199,235);fill-rule:nonzero;"/>
        <path d="M2156.45,1771.26L2157.29,1771.24C2164.16,1771.12 2169.46,1765.51 2168.81,1759.05L2123.01,1301.57L2083.04,1305.13L2148.81,1765.08C2149.33,1768.67 2152.61,1771.33 2156.45,1771.26Z" style="fill:rgb(200,219,244);fill-rule:nonzero;"/>
        <path d="M1392.2,1771.26L1391.36,1771.24C1384.49,1771.12 1379.19,1765.51 1379.84,1759.05L1425.64,1301.57L1465.62,1305.13L1399.84,1765.08C1399.33,1768.67 1396.04,1771.33 1392.2,1771.26Z" style="fill:rgb(186,212,244);fill-rule:nonzero;"/>
        <path d="M2142.81,1235.02L2224.12,833.48C2234.56,779.114 2189.51,729.403 2131.01,730.738L1974.2,734.319C1920.1,735.555 1873.07,771.761 1858.03,823.742L1739.07,1235.02L2142.81,1235.02Z" style="fill:rgb(186,212,244);fill-rule:nonzero;"/>
        <path d="M2093.62,1235.02L2174.93,833.48C2185.37,779.114 2140.32,729.403 2081.82,730.738L1925.01,734.319C1870.91,735.555 1823.87,771.761 1808.84,823.742L1689.88,1235.02L2093.62,1235.02Z" style="fill:rgb(172,199,235);fill-rule:nonzero;"/>
        <path d="M2120.15,1308.26L1499.72,1308.26C1487.26,1308.26 1477.06,1298.06 1477.06,1285.59L1477.06,1257.68C1477.06,1245.22 1487.26,1235.02 1499.72,1235.02L2142.81,1235.02L2142.81,1285.59C2142.81,1298.06 2132.61,1308.26 2120.15,1308.26Z" style="fill:rgb(200,219,244);fill-rule:nonzero;"/>
        <path d="M1829,1308.26L1433.49,1308.26C1423.45,1308.26 1415.23,1300.04 1415.23,1290L1415.23,1253.28C1415.23,1243.24 1423.45,1235.02 1433.49,1235.02L1829,1235.02C1839.04,1235.02 1847.25,1243.24 1847.25,1253.28L1847.25,1290C1847.25,1300.04 1839.04,1308.26 1829,1308.26Z" style="fill:rgb(172,199,235);fill-rule:nonzero;"/>
        <path d="M2993.68,1778.02L243.341,1778.02C241.185,1778.02 239.42,1776.25 239.42,1774.1L239.42,1770.42C239.42,1768.26 241.185,1766.5 243.341,1766.5L2993.68,1766.5C2995.84,1766.5 2997.6,1768.26 2997.6,1770.42L2997.6,1774.1C2997.6,1776.25 2995.84,1778.02 2993.68,1778.02Z" style="fill:rgb(46,53,82);fill-rule:nonzero;"/>
        <path d="M1587.69,855.019C1578.95,847.863 1769.48,687.021 1810.33,777.197C1810.33,777.197 1908.17,701.821 1818.08,657.7C1767.36,632.862 1760.08,580.605 1748.05,549.85C1736.02,519.083 1675.23,435.215 1605.05,494.171C1605.05,494.171 1569.42,500.485 1550.24,523.926C1506.61,577.236 1409.62,933.766 1587.69,855.019Z" style="fill:rgb(22,53,96);fill-rule:nonzero;"/>
        <path d="M1710.86,794.218C1710.86,794.218 1677.73,853.787 1631.29,903.218C1606.75,929.327 1578.49,952.612 1549.45,962.762C1535.27,967.715 1520.92,969.549 1506.71,967.055C1497.64,965.477 1501.58,911.949 1514.18,871.262C1530.77,817.673 1582.5,684.508 1582.5,684.508L1612.1,697.129C1612.1,697.129 1571.04,864.842 1575.94,865.551L1619.35,755.695L1710.86,794.218Z" style="fill:rgb(229,146,90);fill-rule:nonzero;"/>
        <path d="M1774.11,1065.96C1774.11,1065.96 1444.24,1060.71 1400.23,1088.7C1356.22,1116.7 1444.22,1563.68 1444.22,1563.68C1444.22,1563.68 1529.54,1566.4 1536.32,1543.82C1536.32,1543.82 1520.97,1334.38 1534.4,1298.2C1547.83,1262.02 1539.55,1211.87 1539.55,1211.87C1539.55,1211.87 1706.42,1237.33 1759.41,1224.8C1812.4,1212.27 1774.11,1065.96 1774.11,1065.96Z" style="fill:rgb(237,125,43);fill-rule:nonzero;"/>
        <path d="M1462.28,1540.96C1462.28,1540.96 1481.06,1591.23 1477.07,1609.88C1473.09,1628.52 1479.52,1664.67 1471.89,1680.84C1464.25,1697 1450.62,1720.5 1463.71,1726.45C1468.67,1728.71 1526.43,1683.9 1529.74,1670.68C1533.05,1657.47 1535.63,1618.46 1546.69,1597.28C1557.74,1576.11 1548.47,1559.03 1532.49,1551.24C1516.51,1543.46 1494.24,1500.81 1494.24,1500.81L1462.28,1540.96Z" style="fill:rgb(22,53,96);fill-rule:nonzero;"/>
        <path d="M1406.26,1618.96C1406.26,1618.96 1388.17,1669.48 1373.09,1681.16C1358.02,1692.83 1339.61,1724.6 1323.34,1732.03C1307.08,1739.45 1281.51,1748.61 1287.67,1761.6C1290,1766.53 1363.04,1769.56 1374.1,1761.6C1385.15,1753.64 1412.29,1725.5 1434.4,1716.45C1456.51,1707.4 1460.45,1688.38 1453.26,1672.12C1446.08,1655.86 1456.58,1608.91 1456.58,1608.91L1406.26,1618.96Z" style="fill:rgb(42,78,150);fill-rule:nonzero;"/>
        <path d="M1961.16,1054.21C1961.16,1054.21 1569.71,1115.47 1539.55,1150.3C1509.39,1185.13 1389.94,1638.85 1389.94,1638.85C1389.94,1638.85 1424.8,1658.4 1456.58,1640.31C1456.58,1640.31 1547.52,1486.54 1587.69,1438.29C1627.87,1390.05 1643.28,1240.8 1649.9,1239.29C1656.52,1237.79 1867.17,1264.74 1944.77,1213.38C1990.51,1183.11 1961.16,1054.21 1961.16,1054.21Z" style="fill:rgb(249,151,70);fill-rule:nonzero;"/>
        <path d="M1825.98,728.085C1802.88,710.694 1733.36,691.491 1689.88,711.058C1669.29,720.323 1638.05,732.466 1619.35,755.695C1599.17,780.765 1575.94,865.555 1575.94,865.555C1583.53,910.212 1619.04,915.682 1619.04,915.682C1598.25,994.298 1696.21,973.758 1689.88,1017.36C1678.83,1093.43 1750,1133.38 1788.78,1151.11C1839.54,1174.32 1982.2,1203.56 1982.35,1151.11C1983.05,912.172 1892.4,778.089 1825.98,728.085Z" style="fill:white;fill-rule:nonzero;"/>
        <path d="M1818.08,812.849C1818.08,812.849 1792.36,951.702 1722.67,992.466L1657.09,992.466L1726.32,905.938L1818.08,812.849Z" style="fill:rgb(235,243,250);fill-rule:nonzero;"/>
        <path d="M1584.83,698.555C1584.83,698.555 1563.53,673.188 1559.79,665.503C1556.06,657.819 1563.05,624.72 1571.73,624.937C1577.21,625.073 1583.95,645.121 1589.94,652.41C1595.92,659.699 1621.98,670.066 1610.96,700.697C1609.72,704.147 1584.83,698.555 1584.83,698.555Z" style="fill:rgb(229,146,90);fill-rule:nonzero;"/>
        <path d="M1638.98,749.286C1632.97,758.302 1640.3,783.566 1674.36,775.7C1696.72,770.536 1740.29,734.27 1732.42,715.764C1728.69,706.967 1707.25,686.315 1693.78,632.62L1689.88,634.475L1624.3,665.742C1624.3,665.742 1631.41,687.074 1636.67,707.534C1641.1,724.712 1641.46,745.556 1638.98,749.286Z" style="fill:rgb(255,178,125);fill-rule:nonzero;"/>
        <path d="M1624.3,665.742C1624.3,665.742 1631.41,687.074 1636.67,707.534C1675.04,696.601 1686.48,656.146 1689.88,634.475L1624.3,665.742Z" style="fill:rgb(244,162,105);fill-rule:nonzero;"/>
        <path d="M1586.97,677.485C1586.97,677.485 1678.89,698.811 1691.29,641.364C1703.69,583.918 1723.9,547.981 1665.74,531.937C1607.58,515.892 1591.41,535.344 1582.6,553.511C1573.8,571.679 1563.38,670.458 1586.97,677.485Z" style="fill:rgb(255,178,125);fill-rule:nonzero;"/>
        <path d="M1624.03,521.509C1624.03,521.509 1624.61,587.621 1673.29,619.71C1701.78,638.486 1703.12,657.7 1703.12,657.7C1703.12,657.7 1719.99,601.132 1722.67,558.579C1722.67,558.579 1649.97,493.515 1624.03,521.509Z" style="fill:rgb(22,53,96);fill-rule:nonzero;"/>
        <path d="M1629.81,533.188C1629.81,533.188 1602.65,542.224 1590.56,552.226C1572.66,567.038 1568,615.208 1570.13,627.201C1570.13,627.201 1565.26,543.48 1592.21,522.152C1620.78,499.535 1629.81,533.188 1629.81,533.188Z" style="fill:rgb(22,53,96);fill-rule:nonzero;"/>
        <path d="M1818.09,812.854C1808.73,835.16 1797.91,856.134 1786.43,875.138C1742.56,947.658 1688.92,991.476 1669.55,971.053C1664.19,965.403 1650.67,957.197 1664.81,926.832C1675.73,903.375 1689.25,874.037 1702.52,845.164C1729.88,785.632 1756.12,728.08 1756.12,728.08C1764.48,728.08 1852.36,731.138 1818.09,812.854Z" style="fill:rgb(255,178,125);fill-rule:nonzero;"/>
        <path d="M1726.32,905.938C1723.31,904.138 1557.93,944.305 1506.71,956.806C1497.31,959.1 1491.75,960.463 1491.75,960.463L1491.75,979.763C1491.75,979.763 1662.88,987.795 1689.61,975.52C1716.33,963.244 1741.85,934.68 1741.85,934.68L1726.32,905.938Z" style="fill:rgb(255,178,125);fill-rule:nonzero;"/>
        <path d="M1818.09,812.854C1808.73,835.16 1797.91,856.134 1786.43,875.138C1750.69,870.503 1717.7,853.81 1702.52,845.164C1729.88,785.632 1756.12,728.08 1756.12,728.08C1764.48,728.08 1852.36,731.138 1818.09,812.854Z" style="fill:white;fill-rule:nonzero;"/>
        <path d="M1190.88,979.79L1374.59,979.79C1374.59,971.702 1368.04,965.145 1359.95,965.145L1190.88,965.145L1190.88,979.79Z" style="fill:rgb(237,125,43);fill-rule:nonzero;"/>
        <path d="M1191.41,779.71L907.377,779.71L975.505,979.79L1261.38,979.79L1191.41,779.71Z" style="fill:rgb(237,125,43);fill-rule:nonzero;"/>
        <path d="M903.195,779.706L971.323,979.789L1257.2,979.789L1187.23,779.706L903.195,779.706Z" style="fill:rgb(249,151,70);fill-rule:nonzero;"/>
        <path d="M1056.33,877.899C1058.09,885.544 1065.72,891.741 1073.36,891.741C1081.01,891.741 1085.78,885.544 1084.01,877.899C1082.25,870.255 1074.62,864.058 1066.97,864.058C1059.33,864.058 1054.56,870.255 1056.33,877.899Z" style="fill:white;fill-rule:nonzero;"/>
        <path d="M2251.41,1307.73L2251.41,1319.37C2251.41,1323.45 2252.73,1326.78 2254.34,1326.78L2679.28,1326.78C2680.89,1326.78 2682.21,1323.45 2682.21,1319.37L2682.21,1307.73C2682.21,1303.66 2680.89,1300.32 2679.28,1300.32L2254.34,1300.32C2252.73,1300.32 2251.41,1303.66 2251.41,1307.73Z" style="fill:rgb(154,191,226);fill-rule:nonzero;"/>
        <path d="M2251.41,1307.73L2251.41,1319.37C2251.41,1323.45 2252.62,1326.78 2254.1,1326.78L2591.45,1326.78C2592.93,1326.78 2594.14,1323.45 2594.14,1319.37L2594.14,1307.73C2594.14,1303.66 2592.93,1300.32 2591.45,1300.32L2254.1,1300.32C2252.62,1300.32 2251.41,1303.66 2251.41,1307.73Z" style="fill:rgb(186,212,244);fill-rule:nonzero;"/>
        <rect x="2358.96" y="1326.78" width="301.68" height="439.72" style="fill:rgb(200,219,244);fill-rule:nonzero;"/>
        <rect x="2274.42" y="1326.78" width="301.68" height="439.72" style="fill:rgb(223,235,253);fill-rule:nonzero;"/>
        <path d="M2556.97,1342.11L2293.53,1342.11L2293.53,1739.31L2556.97,1739.31L2556.97,1342.11ZM2290.62,1339.21L2559.88,1339.21L2559.88,1742.22L2290.62,1742.22L2290.62,1339.21Z" style="fill:rgb(183,211,243);fill-rule:nonzero;"/>
        <rect x="2292.08" y="1472.53" width="266.35" height="2.9" style="fill:rgb(183,211,243);fill-rule:nonzero;"/>
        <rect x="2292.08" y="1608.45" width="266.35" height="2.9" style="fill:rgb(183,211,243);fill-rule:nonzero;"/>
        <path d="M2397.96,1365.2L2447.38,1365.2C2449.78,1365.2 2451.75,1363.23 2451.75,1360.84C2451.75,1358.44 2449.78,1356.47 2447.38,1356.47L2397.96,1356.47C2395.56,1356.47 2393.6,1358.44 2393.6,1360.84C2393.6,1363.23 2395.56,1365.2 2397.96,1365.2Z" style="fill:rgb(183,211,243);fill-rule:nonzero;"/>
        <path d="M2397.96,1498.11L2447.38,1498.11C2449.78,1498.11 2451.75,1496.15 2451.75,1493.75C2451.75,1491.35 2449.78,1489.39 2447.38,1489.39L2397.96,1489.39C2395.56,1489.39 2393.6,1491.35 2393.6,1493.75C2393.6,1496.15 2395.56,1498.11 2397.96,1498.11Z" style="fill:rgb(183,211,243);fill-rule:nonzero;"/>
        <path d="M2397.96,1636.67L2447.38,1636.67C2449.78,1636.67 2451.75,1634.7 2451.75,1632.3C2451.75,1629.91 2449.78,1627.94 2447.38,1627.94L2397.96,1627.94C2395.56,1627.94 2393.6,1629.91 2393.6,1632.3C2393.6,1634.7 2395.56,1636.67 2397.96,1636.67Z" style="fill:rgb(183,211,243);fill-rule:nonzero;"/>
        <path d="M2187.69,554.128L2015.1,554.128C2007.18,554.128 2000.69,547.646 2000.69,539.723L2000.69,373.142C2000.69,365.218 2007.18,358.736 2015.1,358.736L2187.69,358.736C2195.61,358.736 2202.1,365.218 2202.1,373.142L2202.1,539.723C2202.1,547.646 2195.61,554.128 2187.69,554.128Z" style="fill:rgb(192,216,251);fill-rule:nonzero;"/>
        <path d="M2180.21,545.664L2022.58,545.664C2015.34,545.664 2009.42,539.743 2009.42,532.506L2009.42,380.358C2009.42,373.121 2015.34,367.2 2022.58,367.2L2180.21,367.2C2187.45,367.2 2193.37,373.121 2193.37,380.358L2193.37,532.506C2193.37,539.743 2187.45,545.664 2180.21,545.664Z" style="fill:rgb(223,235,253);fill-rule:nonzero;"/>
        <path d="M2097.22,385.033C2097.22,382.729 2099.09,380.861 2101.39,380.861C2103.7,380.861 2105.57,382.729 2105.57,385.033C2105.57,387.337 2103.7,389.205 2101.39,389.205C2099.09,389.205 2097.22,387.337 2097.22,385.033Z" style="fill:rgb(183,211,243);fill-rule:nonzero;"/>
        <path d="M2130.89,390.93C2132.01,388.916 2134.55,388.19 2136.56,389.31C2138.57,390.429 2139.3,392.969 2138.18,394.983C2137.06,396.997 2134.52,397.723 2132.51,396.604C2130.49,395.484 2129.77,392.944 2130.89,390.93Z" style="fill:rgb(183,211,243);fill-rule:nonzero;"/>
        <path d="M2159.73,413.843C2161.66,412.594 2164.25,413.151 2165.5,415.087C2166.74,417.023 2166.19,419.606 2164.25,420.855C2162.31,422.104 2159.73,421.547 2158.48,419.611C2157.23,417.675 2157.79,415.093 2159.73,413.843Z" style="fill:rgb(183,211,243);fill-rule:nonzero;"/>
        <path d="M2174.01,449.308C2176.32,449.308 2178.19,451.176 2178.19,453.48C2178.19,455.784 2176.32,457.652 2174.01,457.652C2171.71,457.652 2169.84,455.784 2169.84,453.48C2169.84,451.176 2171.71,449.308 2174.01,449.308Z" style="fill:rgb(183,211,243);fill-rule:nonzero;"/>
        <path d="M2166.72,490.466C2168.35,492.095 2168.35,494.736 2166.72,496.366C2165.09,497.995 2162.45,497.995 2160.82,496.366C2159.19,494.736 2159.19,492.095 2160.82,490.466C2162.45,488.836 2165.09,488.836 2166.72,490.466Z" style="fill:rgb(183,211,243);fill-rule:nonzero;"/>
        <path d="M2140.52,516.732C2142.15,518.361 2142.15,521.003 2140.52,522.632C2138.89,524.261 2136.25,524.261 2134.62,522.632C2132.99,521.003 2132.99,518.361 2134.62,516.732C2136.25,515.103 2138.89,515.103 2140.52,516.732Z" style="fill:rgb(183,211,243);fill-rule:nonzero;"/>
        <path d="M2097.22,530.271C2097.22,527.967 2099.09,526.099 2101.39,526.099C2103.7,526.099 2105.57,527.967 2105.57,530.271C2105.57,532.575 2103.7,534.443 2101.39,534.443C2099.09,534.443 2097.22,532.575 2097.22,530.271Z" style="fill:rgb(183,211,243);fill-rule:nonzero;"/>
        <path d="M2071.77,390.93C2070.65,388.916 2068.11,388.19 2066.1,389.31C2064.08,390.429 2063.36,392.969 2064.48,394.983C2065.59,396.997 2068.13,397.723 2070.15,396.604C2072.16,395.484 2072.89,392.944 2071.77,390.93Z" style="fill:rgb(183,211,243);fill-rule:nonzero;"/>
        <path d="M2042.93,413.843C2040.99,412.594 2038.41,413.151 2037.16,415.087C2035.91,417.023 2036.47,419.606 2038.41,420.855C2040.34,422.104 2042.92,421.547 2044.17,419.611C2045.42,417.675 2044.87,415.093 2042.93,413.843Z" style="fill:rgb(183,211,243);fill-rule:nonzero;"/>
        <path d="M2028.64,449.308C2026.34,449.308 2024.47,451.176 2024.47,453.48C2024.47,455.784 2026.34,457.652 2028.64,457.652C2030.95,457.652 2032.81,455.784 2032.81,453.48C2032.81,451.176 2030.95,449.308 2028.64,449.308Z" style="fill:rgb(183,211,243);fill-rule:nonzero;"/>
        <path d="M2035.94,490.466C2034.31,492.095 2034.31,494.736 2035.94,496.366C2037.57,497.995 2040.21,497.995 2041.84,496.366C2043.47,494.736 2043.47,492.095 2041.84,490.466C2040.21,488.836 2037.57,488.836 2035.94,490.466Z" style="fill:rgb(183,211,243);fill-rule:nonzero;"/>
        <path d="M2062.13,516.732C2060.51,518.361 2060.51,521.003 2062.13,522.632C2063.76,524.261 2066.41,524.261 2068.04,522.632C2069.66,521.003 2069.66,518.361 2068.04,516.732C2066.41,515.103 2063.76,515.103 2062.13,516.732Z" style="fill:rgb(183,211,243);fill-rule:nonzero;"/>
        <path d="M2100.27,453.48C2100.27,451.176 2102.14,449.308 2104.44,449.308C2106.75,449.308 2108.61,451.176 2108.61,453.48C2108.61,455.784 2106.75,457.652 2104.44,457.652C2102.14,457.652 2100.27,455.784 2100.27,453.48Z" style="fill:rgb(183,211,243);fill-rule:nonzero;"/>
        <rect x="2103.87" y="401.361" width="1.14" height="52.119" style="fill:rgb(183,211,243);fill-rule:nonzero;"/>
        <path d="M2104.97,454.75L2102.86,452.062L2130.49,430.372L2132.6,433.06L2104.97,454.75Z" style="fill:rgb(183,211,243);fill-rule:nonzero;"/>
        <path d="M769.371,1458.55C769.371,1458.55 818.818,1400.86 772.419,1364.21C772.419,1364.21 738.528,1343.7 710.893,1345.36C710.893,1345.36 750.051,1411.03 737.383,1417.56C724.715,1424.09 699.025,1341.24 699.025,1341.24C699.025,1341.24 621.899,1333.76 597.088,1345.69C597.088,1345.69 663.021,1399.65 649.135,1402.86C635.249,1406.07 564.033,1353.11 564.033,1353.11C564.033,1353.11 492.251,1365.33 496.079,1409.12C499.906,1452.91 524.64,1466.43 535.511,1465.27C546.382,1464.1 609.973,1439.83 611.358,1448.73C612.744,1457.64 574.465,1486.75 547.66,1488.11C547.66,1488.11 598.268,1543.92 631.902,1527.82C665.537,1511.71 668.408,1486.18 689.374,1476.6C710.34,1467.02 728.238,1467.05 719.582,1476.81C710.925,1486.58 672.98,1496.07 660.99,1517.28C649,1538.49 638.243,1552.79 673.042,1547.56C707.84,1542.32 764.405,1516.86 766.888,1487.7L769.371,1458.55Z" style="fill:rgb(200,219,244);fill-rule:nonzero;"/>
        <path d="M531.349,1410.3C531.349,1410.3 726.314,1402.79 769.371,1458.55C769.371,1458.55 778.893,1487.06 808.194,1513.03L812.761,1525.48C812.761,1525.48 778.977,1489.86 766.888,1487.7C766.888,1487.7 785.793,1418.62 531.349,1410.3Z" style="fill:rgb(200,219,244);fill-rule:nonzero;"/>
        <path d="M808.194,1513.03C808.194,1513.03 850.042,1543.98 852.949,1599.28L845.354,1599.96C845.354,1599.96 831.988,1542.78 807.831,1520.42C783.673,1498.06 808.194,1513.03 808.194,1513.03Z" style="fill:rgb(200,219,244);fill-rule:nonzero;"/>
        <path d="M942.257,1386C942.257,1386 863.599,1341.95 900.306,1282.17C900.306,1282.17 929.672,1245.46 961.136,1236.02C961.136,1236.02 944.355,1325.17 961.136,1327.26C977.916,1329.36 972.672,1226.58 972.672,1226.58C972.672,1226.58 1055.53,1186.73 1088.04,1189.87C1088.04,1189.87 1036.65,1276.92 1053.43,1274.83C1070.21,1272.73 1127.89,1184.63 1127.89,1184.63C1127.89,1184.63 1212.84,1168.9 1226.48,1219.24C1240.11,1269.58 1218.09,1294.75 1205.5,1297.9C1192.92,1301.04 1112.16,1300 1114.26,1310.48C1116.36,1320.97 1170.89,1337.75 1201.31,1328.31C1201.31,1328.31 1167.75,1411.17 1123.7,1406.97C1079.65,1402.78 1066.01,1375.51 1038.75,1373.41C1011.48,1371.31 991.55,1378.66 1005.18,1386C1018.82,1393.34 1064.97,1388.4 1086.99,1407.13C1109.01,1425.85 1126.84,1437.39 1085.94,1445.78C1045.04,1454.17 971.624,1448.92 956.94,1417.46L942.257,1386Z" style="fill:rgb(200,219,244);fill-rule:nonzero;"/>
        <path d="M1187.67,1234.97C1187.67,1234.97 967.428,1306.29 942.257,1386C942.257,1386 943.306,1421.66 921.282,1462.56L921.282,1478.29C921.282,1478.29 944.355,1424.8 956.94,1417.46C956.94,1417.46 907.647,1348.24 1187.67,1234.97Z" style="fill:rgb(200,219,244);fill-rule:nonzero;"/>
        <path d="M921.282,1462.56C921.282,1462.56 887.316,1514.14 906.68,1576.92L915.418,1574.57C915.418,1574.57 906.936,1505.42 924.706,1470.64C942.477,1435.86 921.282,1462.56 921.282,1462.56Z" style="fill:rgb(200,219,244);fill-rule:nonzero;"/>
        <path d="M817.117,1325.25C817.117,1325.25 920.804,1267.18 872.417,1188.38C872.417,1188.38 833.707,1139.99 792.232,1127.55C792.232,1127.55 814.353,1245.06 792.232,1247.83C770.113,1250.59 777.025,1115.11 777.025,1115.11C777.025,1115.11 667.808,1062.57 624.951,1066.72C624.951,1066.72 692.693,1181.47 670.573,1178.7C648.453,1175.94 572.416,1059.81 572.416,1059.81C572.416,1059.81 460.434,1039.07 442.461,1105.43C424.489,1171.79 453.521,1204.97 470.111,1209.12C486.701,1213.27 593.153,1211.88 590.388,1225.71C587.624,1239.53 515.734,1261.65 475.642,1249.21C475.642,1249.21 519.88,1358.43 577.946,1352.9C636.011,1347.37 653.983,1311.42 689.928,1308.66C725.873,1305.89 752.14,1315.57 734.168,1325.25C716.195,1334.92 655.366,1328.42 626.333,1353.1C597.301,1377.78 573.798,1392.99 627.716,1404.05C681.633,1415.11 778.408,1408.2 797.763,1366.72L817.117,1325.25Z" style="fill:rgb(212,228,248);fill-rule:nonzero;"/>
        <path d="M493.614,1126.17C493.614,1126.17 783.938,1220.18 817.117,1325.25C817.117,1325.25 815.735,1372.25 844.767,1426.17L844.767,1446.91C844.767,1446.91 814.353,1376.4 797.763,1366.72C797.763,1366.72 862.74,1275.48 493.614,1126.17Z" style="fill:rgb(212,228,248);fill-rule:nonzero;"/>
        <path d="M844.767,1426.17C844.767,1426.17 889.54,1494.16 864.015,1576.92L852.497,1573.83C852.497,1573.83 863.678,1482.67 840.253,1436.82C816.829,1390.97 844.767,1426.17 844.767,1426.17Z" style="fill:rgb(212,228,248);fill-rule:nonzero;"/>
        <path d="M820.611,1756.39C708.438,1756.39 617.505,1665.46 617.505,1553.29L1023.72,1553.29C1023.72,1665.46 932.784,1756.39 820.611,1756.39Z" style="fill:rgb(212,228,248);fill-rule:nonzero;"/>
        <path d="M614.7,1766.73L1026.52,1766.73C1026.52,1752.89 1015.3,1741.67 1001.46,1741.67L639.758,1741.67C625.919,1741.67 614.7,1752.89 614.7,1766.73Z" style="fill:rgb(212,228,248);fill-rule:nonzero;"/>
        <rect x="612.886" y="1553.29" width="417.514" height="6.23" style="fill:rgb(159,193,244);fill-rule:nonzero;"/>
        <path d="M901.831,1024.8L1857.73,1024.8C1867.2,1024.8 1874.87,1017.13 1874.87,1007.66L1874.87,996.929C1874.87,987.463 1867.2,979.79 1857.73,979.79L901.831,979.79C892.365,979.79 884.691,987.463 884.691,996.929L884.691,1007.66C884.691,1017.13 892.365,1024.8 901.831,1024.8Z" style="fill:rgb(42,78,150);fill-rule:nonzero;"/>
        <path d="M913.907,1766.29L913.374,1766.22C906.998,1765.44 902.482,1759.75 903.288,1753.51L1000.4,1002.3L1054.81,1003.86L924.309,1758.74C923.473,1763.57 918.885,1766.9 913.907,1766.29Z" style="fill:rgb(42,78,150);fill-rule:nonzero;"/>
        <path d="M1861.28,1766.29L1861.81,1766.22C1868.19,1765.44 1872.7,1759.75 1871.9,1753.51L1774.79,1002.3L1720.37,1003.86L1850.88,1758.74C1851.71,1763.57 1856.3,1766.9 1861.28,1766.29Z" style="fill:rgb(42,78,150);fill-rule:nonzero;"/>
        <path d="M2478.16,1247.66L2466.92,1249.47L2445.66,1117.04L2456.89,1115.24L2478.16,1247.66Z" style="fill:rgb(181,69,60);fill-rule:nonzero;"/>
        <path d="M2447.53,1092.83L2445.66,1117.04L2456.89,1115.24L2447.53,1092.83Z" style="fill:rgb(239,203,171);fill-rule:nonzero;"/>
        <path d="M2554.12,1260.36L2542.93,1258.29L2567.43,1126.42L2578.62,1128.5L2554.12,1260.36Z" style="fill:rgb(181,69,60);fill-rule:nonzero;"/>
        <path d="M2577.34,1104.24L2567.43,1126.42L2578.62,1128.5L2577.34,1104.24Z" style="fill:rgb(239,203,171);fill-rule:nonzero;"/>
        <path d="M2539.93,1221.69L2528.75,1219.61L2553.25,1087.74L2564.43,1089.82L2539.93,1221.69Z" style="fill:rgb(181,69,60);fill-rule:nonzero;"/>
        <path d="M2563.15,1065.57L2553.25,1087.74L2564.43,1089.82L2563.15,1065.57Z" style="fill:rgb(239,203,171);fill-rule:nonzero;"/>
        <rect x="2487.78" y="1171.15" width="89.63" height="129.17" style="fill:rgb(237,125,43);fill-rule:nonzero;"/>
        <rect x="2442.97" y="1171.15" width="89.63" height="129.17" style="fill:rgb(249,151,70);fill-rule:nonzero;"/>
        <path d="M2410.42,1732.76C2409.48,1734.7 2407.38,1745.15 2403.65,1753.78L2403.65,1753.79C2401.4,1758.98 2398.58,1763.5 2395.06,1765.13C2385.7,1769.49 2369.97,1762.02 2369.97,1762.02C2369.97,1762.02 2343.01,1765.13 2340.39,1763.89C2337.77,1762.64 2335.15,1722.17 2335.15,1722.17C2335.15,1722.17 2356.12,1700.38 2357.99,1699.76C2359.86,1699.14 2375.22,1707.23 2377.84,1707.23C2380.46,1707.23 2395.81,1697.21 2399.93,1699.72C2404.05,1702.25 2411.92,1729.65 2410.42,1732.76Z" style="fill:white;fill-rule:nonzero;"/>
        <path d="M2377.84,1707.23C2377.84,1707.23 2373.16,1717.82 2371.85,1718.75C2370.54,1719.68 2357.99,1699.76 2357.99,1699.76C2359.86,1699.14 2375.22,1707.23 2377.84,1707.23Z" style="fill:rgb(242,247,254);fill-rule:nonzero;"/>
        <path d="M2399.62,1710.24C2399.62,1710.24 2380.46,1727.99 2380.71,1729.65C2380.96,1731.31 2401.43,1743.13 2402.18,1742.72C2402.93,1742.3 2397.81,1728.82 2398.06,1726.53C2398.31,1724.25 2399.62,1710.24 2399.62,1710.24Z" style="fill:rgb(242,247,254);fill-rule:nonzero;"/>
        <path d="M2410.42,1732.76C2409.48,1734.7 2407.38,1745.15 2403.65,1753.78L2403.65,1753.79L2403.64,1753.79L2405.92,1734L2399.93,1699.72C2404.05,1702.25 2411.92,1729.65 2410.42,1732.76Z" style="fill:rgb(242,247,254);fill-rule:nonzero;"/>
        <path d="M2369.97,1762.02C2369.97,1762.02 2343.01,1765.13 2340.39,1763.89C2337.77,1762.64 2335.15,1722.17 2335.15,1722.17C2335.15,1722.17 2341.01,1742.93 2341.14,1743.96C2341.26,1745 2349.56,1742.73 2349.56,1742.73L2369.97,1762.02Z" style="fill:rgb(242,247,254);fill-rule:nonzero;"/>
        <path d="M2342.17,1722.17L2345.16,1732.91L2351.34,1732.91L2346.75,1728.4L2342.17,1722.17Z" style="fill:rgb(242,247,254);fill-rule:nonzero;"/>
        <path d="M1241.57,1732.76C1240.63,1734.7 1238.53,1745.15 1234.8,1753.78L1234.8,1753.79C1232.55,1758.98 1229.73,1763.5 1226.21,1765.13C1216.85,1769.49 1201.12,1762.02 1201.12,1762.02C1201.12,1762.02 1174.16,1765.13 1171.54,1763.89C1168.92,1762.64 1166.3,1722.17 1166.3,1722.17C1166.3,1722.17 1187.27,1700.38 1189.14,1699.76C1191.01,1699.14 1206.37,1707.23 1208.99,1707.23C1211.61,1707.23 1226.96,1697.21 1231.08,1699.72C1235.2,1702.25 1243.07,1729.65 1241.57,1732.76Z" style="fill:white;fill-rule:nonzero;"/>
        <path d="M1208.99,1707.23C1208.99,1707.23 1204.31,1717.82 1203,1718.75C1201.68,1719.68 1189.14,1699.76 1189.14,1699.76C1191.01,1699.14 1206.37,1707.23 1208.99,1707.23Z" style="fill:rgb(242,247,254);fill-rule:nonzero;"/>
        <path d="M1230.77,1710.24C1230.77,1710.24 1211.61,1727.99 1211.86,1729.65C1212.11,1731.31 1232.58,1743.13 1233.33,1742.72C1234.08,1742.3 1228.96,1728.82 1229.21,1726.53C1229.46,1724.25 1230.77,1710.24 1230.77,1710.24Z" style="fill:rgb(242,247,254);fill-rule:nonzero;"/>
        <path d="M1241.57,1732.76C1240.63,1734.7 1238.53,1745.15 1234.8,1753.78L1234.8,1753.79L1234.79,1753.79L1237.07,1734L1231.08,1699.72C1235.2,1702.25 1243.07,1729.65 1241.57,1732.76Z" style="fill:rgb(242,247,254);fill-rule:nonzero;"/>
        <path d="M1201.12,1762.02C1201.12,1762.02 1174.16,1765.13 1171.54,1763.89C1168.92,1762.64 1166.3,1722.17 1166.3,1722.17C1166.3,1722.17 1172.16,1742.93 1172.29,1743.96C1172.41,1745 1180.71,1742.73 1180.71,1742.73L1201.12,1762.02Z" style="fill:rgb(242,247,254);fill-rule:nonzero;"/>
        <path d="M1173.32,1722.17L1176.31,1732.91L1182.49,1732.91L1177.9,1728.4L1173.32,1722.17Z" style="fill:rgb(242,247,254);fill-rule:nonzero;"/>
        <path d="M2494.75,1265.47C2493.91,1267.5 2492.36,1278.22 2489.06,1287.2L2489.06,1287.21C2487.07,1292.61 2484.46,1297.36 2480.98,1299.21C2471.72,1304.16 2455.33,1297.46 2455.33,1297.46C2455.33,1297.46 2428.12,1302.13 2425.39,1301.02C2422.66,1299.9 2417.72,1258.95 2417.72,1258.95C2417.72,1258.95 2437.79,1235.65 2439.66,1234.91C2441.53,1234.17 2457.57,1241.53 2460.23,1241.38C2462.9,1241.23 2477.93,1230.19 2482.25,1232.51C2486.58,1234.85 2496.1,1262.22 2494.75,1265.47Z" style="fill:white;fill-rule:nonzero;"/>
        <path d="M2460.23,1241.38C2460.23,1241.38 2456.08,1252.39 2454.8,1253.41C2453.52,1254.43 2439.66,1234.91 2439.66,1234.91C2441.53,1234.17 2457.57,1241.53 2460.23,1241.38Z" style="fill:rgb(242,247,254);fill-rule:nonzero;"/>
        <path d="M2482.52,1243.21C2482.52,1243.21 2464.06,1262.31 2464.41,1263.98C2464.76,1265.65 2486.21,1276.51 2486.95,1276.05C2487.69,1275.58 2481.73,1262.17 2481.86,1259.84C2481.98,1257.51 2482.52,1243.21 2482.52,1243.21Z" style="fill:rgb(242,247,254);fill-rule:nonzero;"/>
        <path d="M2494.75,1265.47C2493.91,1267.5 2492.36,1278.22 2489.06,1287.2L2489.06,1287.21L2489.05,1287.21L2490.26,1266.99L2482.25,1232.51C2486.58,1234.85 2496.1,1262.22 2494.75,1265.47Z" style="fill:rgb(242,247,254);fill-rule:nonzero;"/>
        <path d="M2455.33,1297.46C2455.33,1297.46 2428.12,1302.13 2425.39,1301.02C2422.66,1299.9 2417.72,1258.95 2417.72,1258.95C2417.72,1258.95 2424.84,1279.7 2425.03,1280.74C2425.22,1281.79 2433.52,1279.02 2433.52,1279.02L2455.33,1297.46Z" style="fill:rgb(242,247,254);fill-rule:nonzero;"/>
        <path d="M2424.85,1258.56L2428.5,1269.29L2434.77,1268.94L2429.86,1264.62L2424.85,1258.56Z" style="fill:rgb(242,247,254);fill-rule:nonzero;"/>
        <path d="M2340.92,1274.8C2340.27,1276.18 2339.06,1283.45 2336.5,1289.55L2336.5,1289.56C2334.95,1293.23 2332.92,1296.47 2330.23,1297.77C2323.04,1301.22 2310.33,1296.88 2310.33,1296.88C2310.33,1296.88 2289.22,1300.35 2287.1,1299.63C2284.98,1298.91 2281.17,1271.28 2281.17,1271.28C2281.17,1271.28 2296.75,1255.3 2298.2,1254.78C2299.64,1254.26 2312.09,1259.05 2314.15,1258.92C2316.22,1258.79 2327.88,1251.15 2331.23,1252.67C2334.59,1254.2 2341.97,1272.59 2340.92,1274.8Z" style="fill:white;fill-rule:nonzero;"/>
        <path d="M2314.15,1258.92C2314.15,1258.92 2310.92,1266.41 2309.93,1267.11C2308.94,1267.82 2298.2,1254.78 2298.2,1254.78C2299.64,1254.26 2312.09,1259.05 2314.15,1258.92Z" style="fill:rgb(196,217,232);fill-rule:nonzero;"/>
        <path d="M2331.44,1259.9C2331.44,1259.9 2317.12,1273.02 2317.38,1274.14C2317.65,1275.27 2334.29,1282.37 2334.86,1282.04C2335.44,1281.72 2330.82,1272.72 2330.92,1271.15C2331.02,1269.57 2331.44,1259.9 2331.44,1259.9Z" style="fill:rgb(223,235,245);fill-rule:nonzero;"/>
        <path d="M2340.92,1274.8C2340.27,1276.18 2339.06,1283.45 2336.5,1289.55L2336.5,1289.56L2336.49,1289.56L2337.44,1275.88L2331.23,1252.67C2334.59,1254.2 2341.97,1272.59 2340.92,1274.8Z" style="fill:rgb(196,217,232);fill-rule:nonzero;"/>
        <path d="M2310.33,1296.88C2310.33,1296.88 2289.22,1300.35 2287.1,1299.63C2284.98,1298.91 2281.17,1271.28 2281.17,1271.28C2281.17,1271.28 2286.69,1285.23 2286.83,1285.93C2286.98,1286.63 2293.42,1284.67 2293.42,1284.67L2310.33,1296.88Z" style="fill:rgb(223,235,245);fill-rule:nonzero;"/>
        <path d="M2286.7,1270.93L2289.52,1278.15L2294.39,1277.84L2290.58,1274.98L2286.7,1270.93Z" style="fill:rgb(223,235,245);fill-rule:nonzero;"/>
        <path d="M1506.71,956.806C1506.71,956.806 1452.23,941.155 1437.07,945.48C1426.37,948.532 1412.71,964.353 1405.59,973.408C1403.52,976.051 1405.43,979.917 1408.79,979.883C1417.91,979.789 1432.65,979.191 1440.37,975.137C1447.65,971.313 1458.49,979.738 1470.56,979.79C1479.83,979.829 1491.75,979.763 1491.75,979.763L1506.71,956.806Z" style="fill:rgb(255,178,125);fill-rule:nonzero;"/>
    </g>
</svg>
